<?xml version="1.0" encoding="UTF-8" standalone="no"?>
<!DOCTYPE svg PUBLIC "-//W3C//DTD SVG 1.1//EN" "http://www.w3.org/Graphics/SVG/1.1/DTD/svg11.dtd">
<svg width="100%" height="100%" viewBox="0 0 1924 1108" version="1.1" xmlns="http://www.w3.org/2000/svg" xmlns:xlink="http://www.w3.org/1999/xlink" xml:space="preserve" xmlns:serif="http://www.serif.com/" style="fill-rule:evenodd;clip-rule:evenodd;stroke-linejoin:round;stroke-miterlimit:2;">
    <g id="original" transform="matrix(1.05652,0,0,1,-2508.25,0)">
        <rect x="2374.07" y="0" width="1820.19" height="1107.48" style="fill:none;"/>
        <g transform="matrix(6.7558,0,0,7.13764,2462.51,-6462.88)">
            <path id="path3161" d="M239.477,982.168C239.477,1020.25 208.612,1051.11 170.536,1051.11C132.46,1051.11 101.592,1020.25 101.591,982.172L101.591,982.169C101.591,944.093 132.456,913.226 170.532,913.225C208.608,913.224 239.475,944.09 239.477,982.166L239.477,982.168Z" style="fill:rgb(116,121,184);fill-rule:nonzero;"/>
            <g>
                <path d="M10.062,963.224L10.062,997.03L29.135,997.03C30.656,997.03 31.823,997.4 32.636,998.138C33.448,998.878 33.856,999.807 33.856,1000.93C33.856,1002.07 33.455,1002.99 32.652,1003.7C31.849,1004.41 30.677,1004.76 29.135,1004.76L6.419,1004.76C4.37,1004.76 2.897,1004.31 1.999,1003.4C1.101,1002.49 0.652,1001.02 0.652,998.994L0.652,963.224C0.652,961.324 1.08,959.898 1.935,958.948C2.79,957.997 3.915,957.522 5.31,957.522C6.725,957.522 7.871,957.992 8.748,958.931C9.624,959.872 10.062,961.303 10.062,963.224Z" style="fill-rule:nonzero;"/>
                <path d="M40.415,999.818L40.415,963.224C40.415,961.324 40.848,959.898 41.714,958.948C42.58,957.997 43.699,957.522 45.072,957.522C46.487,957.522 47.633,957.992 48.51,958.931C49.386,959.871 49.824,961.302 49.824,963.224L49.824,999.818C49.824,1001.74 49.386,1003.18 48.51,1004.13C47.633,1005.08 46.487,1005.55 45.072,1005.55C43.72,1005.55 42.606,1005.07 41.729,1004.11C40.852,1003.15 40.415,1001.72 40.415,999.818Z" style="fill-rule:nonzero;"/>
                <path d="M72.604,963.161L90.694,990.535L90.694,962.908C90.694,961.113 91.079,959.766 91.851,958.868C92.622,957.971 93.662,957.522 94.972,957.522C96.324,957.522 97.39,957.97 98.172,958.868C98.953,959.766 99.344,961.113 99.344,962.908L99.344,999.438C99.344,1003.51 97.654,1005.55 94.275,1005.55C93.43,1005.55 92.67,1005.43 91.994,1005.19C91.318,1004.95 90.684,1004.56 90.093,1004.03C89.501,1003.5 88.952,1002.89 88.445,1002.18C87.938,1001.47 87.431,1000.75 86.924,1000.01L69.277,972.95L69.277,1000.17C69.277,1001.94 68.865,1003.28 68.041,1004.19C67.217,1005.1 66.161,1005.55 64.873,1005.55C63.542,1005.55 62.476,1005.09 61.673,1004.17C60.87,1003.25 60.469,1001.92 60.469,1000.17L60.469,964.332C60.469,962.811 60.638,961.618 60.976,960.752C61.377,959.802 62.042,959.025 62.972,958.423C63.901,957.821 64.905,957.521 65.982,957.521C66.827,957.521 67.55,957.659 68.152,957.932C68.754,958.207 69.282,958.577 69.736,959.041C70.19,959.505 70.655,960.107 71.13,960.847C71.606,961.588 72.097,962.359 72.604,963.161Z" style="fill-rule:nonzero;"/>
                <path d="M115.471,958.314L127.733,958.314C130.921,958.314 133.657,958.61 135.938,959.201C138.219,959.793 140.29,960.901 142.148,962.528C146.985,966.668 149.403,972.962 149.403,981.411C149.403,984.199 149.161,986.744 148.674,989.046C148.188,991.349 147.438,993.424 146.424,995.272C145.41,997.121 144.112,998.773 142.528,1000.23C141.282,1001.35 139.919,1002.25 138.441,1002.92C136.962,1003.6 135.373,1004.07 133.672,1004.35C131.972,1004.62 130.055,1004.76 127.922,1004.76L115.661,1004.76C113.95,1004.76 112.661,1004.5 111.796,1003.99C110.93,1003.47 110.365,1002.74 110.101,1001.8C109.836,1000.86 109.705,999.639 109.705,998.139L109.705,964.08C109.705,962.053 110.159,960.585 111.067,959.677C111.975,958.768 113.443,958.314 115.471,958.314ZM119.114,965.759L119.114,997.283L126.242,997.283C127.805,997.283 129.031,997.241 129.918,997.157C130.805,997.073 131.724,996.861 132.674,996.523C133.625,996.185 134.448,995.71 135.146,995.097C138.293,992.436 139.867,987.853 139.867,981.347C139.867,976.764 139.175,973.331 137.792,971.05C136.408,968.769 134.702,967.317 132.675,966.694C130.648,966.071 128.197,965.759 125.325,965.759L119.114,965.759Z" style="fill-rule:nonzero;"/>
                <path d="M184.919,999.501L182.701,993.672L163.818,993.672L161.6,999.628C160.734,1001.95 159.995,1003.52 159.382,1004.33C158.769,1005.14 157.766,1005.55 156.372,1005.55C155.188,1005.55 154.143,1005.12 153.235,1004.25C152.327,1003.39 151.873,1002.41 151.873,1001.31C151.873,1000.67 151.978,1000.02 152.19,999.343C152.4,998.667 152.749,997.728 153.235,996.524L165.116,966.362C165.454,965.497 165.86,964.457 166.336,963.242C166.812,962.027 167.318,961.019 167.857,960.216C168.396,959.414 169.103,958.764 169.98,958.268C170.856,957.772 171.939,957.524 173.228,957.524C174.537,957.524 175.63,957.772 176.506,958.268C177.382,958.764 178.091,959.404 178.629,960.185C179.167,960.966 179.622,961.806 179.991,962.704C180.36,963.602 180.831,964.801 181.401,966.3L193.536,996.272C194.485,998.553 194.961,1000.21 194.961,1001.25C194.961,1002.32 194.513,1003.31 193.614,1004.21C192.717,1005.11 191.634,1005.56 190.367,1005.56C189.628,1005.56 188.994,1005.42 188.466,1005.16C187.939,1004.89 187.495,1004.54 187.136,1004.08C186.777,1003.63 186.392,1002.93 185.98,1001.99C185.568,1001.05 185.215,1000.22 184.919,999.501ZM166.289,986.606L180.166,986.606L173.164,967.438L166.289,986.606Z" style="fill-rule:nonzero;"/>
                <path d="M226.328,966.076L216.062,966.076L216.062,999.818C216.062,1001.76 215.628,1003.2 214.763,1004.14C213.896,1005.08 212.777,1005.55 211.405,1005.55C210.011,1005.55 208.875,1005.08 208,1004.13C207.123,1003.18 206.685,1001.74 206.685,999.817L206.685,966.075L196.42,966.075C194.815,966.075 193.621,965.721 192.84,965.013C192.058,964.306 191.667,963.371 191.667,962.209C191.667,961.005 192.073,960.055 192.887,959.357C193.699,958.661 194.877,958.312 196.42,958.312L226.328,958.312C227.953,958.312 229.163,958.671 229.955,959.389C230.748,960.107 231.143,961.047 231.143,962.208C231.143,963.37 230.742,964.305 229.939,965.012C229.137,965.723 227.933,966.076 226.328,966.076Z" style="fill-rule:nonzero;"/>
            </g>
        </g>
        <g transform="matrix(2.08051,0,0,2.1981,2184.61,-524.395)">
            <g transform="matrix(50,0,0,50,529.393,619.684)">
                <path d="M0.688,-0.226C0.688,-0.203 0.682,-0.179 0.671,-0.152C0.66,-0.126 0.642,-0.1 0.618,-0.074C0.594,-0.048 0.563,-0.028 0.526,-0.012C0.488,0.004 0.445,0.012 0.395,0.012C0.357,0.012 0.323,0.009 0.292,0.001C0.261,-0.006 0.233,-0.017 0.208,-0.032C0.183,-0.047 0.159,-0.067 0.138,-0.092C0.119,-0.114 0.103,-0.139 0.09,-0.167C0.076,-0.195 0.066,-0.225 0.06,-0.256C0.053,-0.288 0.05,-0.321 0.05,-0.357C0.05,-0.415 0.058,-0.466 0.075,-0.512C0.092,-0.557 0.116,-0.596 0.147,-0.629C0.178,-0.661 0.215,-0.686 0.257,-0.703C0.299,-0.72 0.344,-0.728 0.391,-0.728C0.449,-0.728 0.501,-0.716 0.546,-0.693C0.591,-0.67 0.626,-0.642 0.65,-0.608C0.674,-0.574 0.686,-0.542 0.686,-0.511C0.686,-0.495 0.68,-0.48 0.668,-0.467C0.657,-0.455 0.643,-0.448 0.626,-0.448C0.607,-0.448 0.594,-0.453 0.584,-0.461C0.575,-0.47 0.565,-0.485 0.553,-0.507C0.534,-0.542 0.512,-0.569 0.487,-0.586C0.461,-0.604 0.43,-0.613 0.392,-0.613C0.333,-0.613 0.285,-0.59 0.25,-0.545C0.214,-0.5 0.197,-0.435 0.197,-0.352C0.197,-0.296 0.205,-0.25 0.22,-0.213C0.236,-0.176 0.258,-0.149 0.287,-0.13C0.315,-0.112 0.349,-0.103 0.387,-0.103C0.429,-0.103 0.464,-0.113 0.493,-0.134C0.522,-0.155 0.543,-0.185 0.558,-0.225C0.564,-0.244 0.572,-0.259 0.581,-0.271C0.59,-0.283 0.605,-0.289 0.625,-0.289C0.642,-0.289 0.657,-0.283 0.669,-0.271C0.682,-0.259 0.688,-0.244 0.688,-0.226Z" style="fill-rule:nonzero;"/>
            </g>
            <g transform="matrix(50,0,0,50,566.405,619.684)">
                <path d="M0.22,-0.64L0.22,-0.119L0.514,-0.119C0.538,-0.119 0.556,-0.113 0.568,-0.102C0.581,-0.091 0.587,-0.076 0.587,-0.059C0.587,-0.042 0.581,-0.027 0.568,-0.016C0.556,-0.005 0.538,0 0.514,0L0.164,0C0.132,0 0.11,-0.007 0.096,-0.021C0.082,-0.035 0.075,-0.058 0.075,-0.089L0.075,-0.64C0.075,-0.669 0.082,-0.691 0.095,-0.706C0.108,-0.721 0.125,-0.728 0.147,-0.728C0.169,-0.728 0.186,-0.721 0.2,-0.706C0.213,-0.692 0.22,-0.67 0.22,-0.64Z" style="fill-rule:nonzero;"/>
            </g>
            <g transform="matrix(50,0,0,50,595.946,619.684)">
                <path d="M0.536,-0.081L0.502,-0.171L0.211,-0.171L0.177,-0.079C0.163,-0.043 0.152,-0.019 0.143,-0.007C0.133,0.006 0.118,0.012 0.096,0.012C0.078,0.012 0.062,0.006 0.048,-0.008C0.034,-0.021 0.027,-0.036 0.027,-0.053C0.027,-0.063 0.028,-0.073 0.032,-0.083C0.035,-0.094 0.04,-0.108 0.048,-0.127L0.231,-0.592C0.236,-0.605 0.242,-0.621 0.25,-0.64C0.257,-0.659 0.265,-0.674 0.273,-0.687C0.281,-0.699 0.292,-0.709 0.306,-0.717C0.319,-0.724 0.336,-0.728 0.356,-0.728C0.376,-0.728 0.393,-0.724 0.406,-0.717C0.42,-0.709 0.431,-0.699 0.439,-0.687C0.448,-0.675 0.455,-0.662 0.46,-0.648C0.466,-0.634 0.473,-0.616 0.482,-0.593L0.669,-0.131C0.684,-0.096 0.691,-0.07 0.691,-0.054C0.691,-0.038 0.684,-0.022 0.67,-0.009C0.656,0.005 0.64,0.012 0.62,0.012C0.609,0.012 0.599,0.01 0.591,0.006C0.583,0.002 0.576,-0.003 0.57,-0.01C0.565,-0.017 0.559,-0.028 0.552,-0.043C0.546,-0.057 0.541,-0.07 0.536,-0.081ZM0.249,-0.28L0.463,-0.28L0.355,-0.575L0.249,-0.28Z" style="fill-rule:nonzero;"/>
            </g>
            <g transform="matrix(50,0,0,50,631.908,619.684)">
                <path d="M0.273,-0.306L0.222,-0.306L0.222,-0.076C0.222,-0.046 0.215,-0.024 0.202,-0.009C0.189,0.005 0.171,0.012 0.15,0.012C0.127,0.012 0.109,0.005 0.096,-0.01C0.083,-0.025 0.077,-0.047 0.077,-0.076L0.077,-0.627C0.077,-0.658 0.084,-0.681 0.098,-0.695C0.112,-0.709 0.135,-0.716 0.166,-0.716L0.402,-0.716C0.434,-0.716 0.462,-0.714 0.485,-0.712C0.508,-0.709 0.529,-0.703 0.548,-0.695C0.57,-0.685 0.59,-0.672 0.607,-0.654C0.625,-0.637 0.638,-0.616 0.647,-0.593C0.656,-0.57 0.66,-0.545 0.66,-0.519C0.66,-0.466 0.645,-0.423 0.615,-0.391C0.585,-0.359 0.539,-0.337 0.478,-0.323C0.504,-0.31 0.528,-0.289 0.552,-0.263C0.575,-0.236 0.596,-0.208 0.615,-0.177C0.633,-0.147 0.647,-0.12 0.657,-0.096C0.668,-0.072 0.673,-0.055 0.673,-0.046C0.673,-0.036 0.67,-0.027 0.664,-0.018C0.658,-0.009 0.65,-0.001 0.639,0.004C0.629,0.01 0.617,0.012 0.603,0.012C0.587,0.012 0.573,0.008 0.562,0.001C0.551,-0.007 0.541,-0.017 0.533,-0.028C0.525,-0.04 0.515,-0.057 0.501,-0.08L0.443,-0.177C0.422,-0.212 0.403,-0.239 0.387,-0.258C0.371,-0.276 0.354,-0.289 0.337,-0.296C0.32,-0.303 0.299,-0.306 0.273,-0.306ZM0.356,-0.607L0.222,-0.607L0.222,-0.41L0.352,-0.41C0.387,-0.41 0.416,-0.413 0.44,-0.419C0.464,-0.425 0.482,-0.435 0.494,-0.45C0.507,-0.464 0.513,-0.484 0.513,-0.51C0.513,-0.53 0.508,-0.547 0.498,-0.562C0.488,-0.577 0.474,-0.589 0.456,-0.596C0.439,-0.603 0.406,-0.607 0.356,-0.607Z" style="fill-rule:nonzero;"/>
            </g>
            <g transform="matrix(50,0,0,50,667.87,619.684)">
                <path d="M0.084,-0.076L0.084,-0.64C0.084,-0.669 0.091,-0.691 0.104,-0.706C0.117,-0.721 0.135,-0.728 0.156,-0.728C0.178,-0.728 0.195,-0.721 0.209,-0.706C0.222,-0.692 0.229,-0.67 0.229,-0.64L0.229,-0.076C0.229,-0.047 0.222,-0.024 0.209,-0.01C0.195,0.005 0.178,0.012 0.156,0.012C0.135,0.012 0.118,0.005 0.104,-0.01C0.091,-0.025 0.084,-0.047 0.084,-0.076Z" style="fill-rule:nonzero;"/>
            </g>
            <g transform="matrix(50,0,0,50,683.519,619.684)">
                <path d="M0.536,-0.081L0.502,-0.171L0.211,-0.171L0.177,-0.079C0.163,-0.043 0.152,-0.019 0.143,-0.007C0.133,0.006 0.118,0.012 0.096,0.012C0.078,0.012 0.062,0.006 0.048,-0.008C0.034,-0.021 0.027,-0.036 0.027,-0.053C0.027,-0.063 0.028,-0.073 0.032,-0.083C0.035,-0.094 0.04,-0.108 0.048,-0.127L0.231,-0.592C0.236,-0.605 0.242,-0.621 0.25,-0.64C0.257,-0.659 0.265,-0.674 0.273,-0.687C0.281,-0.699 0.292,-0.709 0.306,-0.717C0.319,-0.724 0.336,-0.728 0.356,-0.728C0.376,-0.728 0.393,-0.724 0.406,-0.717C0.42,-0.709 0.431,-0.699 0.439,-0.687C0.448,-0.675 0.455,-0.662 0.46,-0.648C0.466,-0.634 0.473,-0.616 0.482,-0.593L0.669,-0.131C0.684,-0.096 0.691,-0.07 0.691,-0.054C0.691,-0.038 0.684,-0.022 0.67,-0.009C0.656,0.005 0.64,0.012 0.62,0.012C0.609,0.012 0.599,0.01 0.591,0.006C0.583,0.002 0.576,-0.003 0.57,-0.01C0.565,-0.017 0.559,-0.028 0.552,-0.043C0.546,-0.057 0.541,-0.07 0.536,-0.081ZM0.249,-0.28L0.463,-0.28L0.355,-0.575L0.249,-0.28Z" style="fill-rule:nonzero;"/>
            </g>
            <g transform="matrix(50,0,0,50,719.481,619.684)">
                <path d="M0.224,-0.64L0.224,-0.435L0.537,-0.435L0.537,-0.64C0.537,-0.669 0.544,-0.691 0.557,-0.706C0.57,-0.721 0.587,-0.728 0.609,-0.728C0.631,-0.728 0.648,-0.721 0.662,-0.706C0.675,-0.692 0.682,-0.67 0.682,-0.64L0.682,-0.076C0.682,-0.047 0.675,-0.024 0.662,-0.01C0.648,0.005 0.63,0.012 0.609,0.012C0.587,0.012 0.57,0.005 0.557,-0.01C0.544,-0.025 0.537,-0.047 0.537,-0.076L0.537,-0.317L0.224,-0.317L0.224,-0.076C0.224,-0.047 0.217,-0.024 0.204,-0.01C0.19,0.005 0.172,0.012 0.151,0.012C0.129,0.012 0.112,0.005 0.099,-0.01C0.086,-0.025 0.079,-0.047 0.079,-0.076L0.079,-0.64C0.079,-0.669 0.086,-0.691 0.098,-0.706C0.111,-0.721 0.129,-0.728 0.151,-0.728C0.173,-0.728 0.19,-0.721 0.204,-0.706C0.217,-0.692 0.224,-0.67 0.224,-0.64Z" style="fill-rule:nonzero;"/>
            </g>
            <g transform="matrix(50,0,0,50,757.469,619.684)">
                <path d="M0.244,-0.201L0.09,-0.201C0.066,-0.201 0.049,-0.207 0.036,-0.218C0.024,-0.228 0.018,-0.243 0.018,-0.26C0.018,-0.277 0.024,-0.292 0.036,-0.302C0.048,-0.313 0.066,-0.319 0.09,-0.319L0.244,-0.319C0.268,-0.319 0.286,-0.313 0.298,-0.302C0.31,-0.292 0.316,-0.277 0.316,-0.26C0.316,-0.243 0.31,-0.228 0.298,-0.218C0.287,-0.207 0.269,-0.201 0.244,-0.201Z" style="fill-rule:nonzero;"/>
            </g>
            <g transform="matrix(50,0,0,50,774.12,619.684)">
                <path d="M0.688,-0.226C0.688,-0.203 0.682,-0.179 0.671,-0.152C0.66,-0.126 0.642,-0.1 0.618,-0.074C0.594,-0.048 0.563,-0.028 0.526,-0.012C0.488,0.004 0.445,0.012 0.395,0.012C0.357,0.012 0.323,0.009 0.292,0.001C0.261,-0.006 0.233,-0.017 0.208,-0.032C0.183,-0.047 0.159,-0.067 0.138,-0.092C0.119,-0.114 0.103,-0.139 0.09,-0.167C0.076,-0.195 0.066,-0.225 0.06,-0.256C0.053,-0.288 0.05,-0.321 0.05,-0.357C0.05,-0.415 0.058,-0.466 0.075,-0.512C0.092,-0.557 0.116,-0.596 0.147,-0.629C0.178,-0.661 0.215,-0.686 0.257,-0.703C0.299,-0.72 0.344,-0.728 0.391,-0.728C0.449,-0.728 0.501,-0.716 0.546,-0.693C0.591,-0.67 0.626,-0.642 0.65,-0.608C0.674,-0.574 0.686,-0.542 0.686,-0.511C0.686,-0.495 0.68,-0.48 0.668,-0.467C0.657,-0.455 0.643,-0.448 0.626,-0.448C0.607,-0.448 0.594,-0.453 0.584,-0.461C0.575,-0.47 0.565,-0.485 0.553,-0.507C0.534,-0.542 0.512,-0.569 0.487,-0.586C0.461,-0.604 0.43,-0.613 0.392,-0.613C0.333,-0.613 0.285,-0.59 0.25,-0.545C0.214,-0.5 0.197,-0.435 0.197,-0.352C0.197,-0.296 0.205,-0.25 0.22,-0.213C0.236,-0.176 0.258,-0.149 0.287,-0.13C0.315,-0.112 0.349,-0.103 0.387,-0.103C0.429,-0.103 0.464,-0.113 0.493,-0.134C0.522,-0.155 0.543,-0.185 0.558,-0.225C0.564,-0.244 0.572,-0.259 0.581,-0.271C0.59,-0.283 0.605,-0.289 0.625,-0.289C0.642,-0.289 0.657,-0.283 0.669,-0.271C0.682,-0.259 0.688,-0.244 0.688,-0.226Z" style="fill-rule:nonzero;"/>
            </g>
            <g transform="matrix(50,0,0,50,811.132,619.684)">
                <path d="M0.059,-0.167L0.427,-0.607L0.111,-0.607C0.089,-0.607 0.072,-0.612 0.061,-0.622C0.05,-0.631 0.044,-0.644 0.044,-0.66C0.044,-0.677 0.05,-0.69 0.061,-0.7C0.072,-0.711 0.089,-0.716 0.111,-0.716L0.518,-0.716C0.571,-0.716 0.597,-0.691 0.597,-0.642C0.597,-0.619 0.593,-0.6 0.584,-0.586C0.575,-0.572 0.557,-0.549 0.531,-0.518L0.187,-0.109L0.566,-0.109C0.588,-0.109 0.605,-0.104 0.616,-0.095C0.627,-0.086 0.633,-0.073 0.633,-0.056C0.633,-0.039 0.627,-0.025 0.616,-0.015C0.605,-0.005 0.588,0 0.566,0L0.101,0C0.069,0 0.046,-0.007 0.03,-0.021C0.014,-0.035 0.006,-0.054 0.006,-0.078C0.006,-0.086 0.007,-0.094 0.01,-0.101C0.012,-0.107 0.016,-0.114 0.02,-0.12C0.025,-0.126 0.031,-0.134 0.039,-0.143C0.046,-0.152 0.053,-0.16 0.059,-0.167Z" style="fill-rule:nonzero;"/>
            </g>
        </g>
    </g>
</svg>
