<?xml version="1.0" encoding="utf-8"?>
<!-- Generator: Adobe Illustrator 24.1.2, SVG Export Plug-In . SVG Version: 6.00 Build 0)  -->
<svg version="1.1" id="Layer_1" xmlns="http://www.w3.org/2000/svg" xmlns:xlink="http://www.w3.org/1999/xlink" x="0px" y="0px"
	 viewBox="0 0 581.5 177.3" style="enable-background:new 0 0 581.5 177.3;" xml:space="preserve">
<style type="text/css">
	.st0{fill:#2196F3;}
	.st1{fill:#FFFA00;}
	.st2{fill:url(#SVGID_1_);}
	.st3{fill:url(#SVGID_2_);}
</style>
<g id="Layer_2_1_">
	<g id="Layer_1-2">
		<rect y="0" class="st0" width="581.5" height="177.3"/>
		<path class="st1" d="M129.1,68.6c0-1.9,0.4-3.7,1.3-5.4c0.9-1.5,2.2-2.8,3.7-3.6c1.7-0.9,3.6-1.3,5.5-1.3v3.6
			c-1.8-0.1-3.6,0.5-5,1.7c-1.3,1.3-1.9,3.1-1.8,4.9H129.1z M129.1,89.9V68.6h3.8v21.3H129.1z M129.1,89.9h3.8
			c-0.1,1.8,0.5,3.6,1.8,4.9c1.4,1.2,3.2,1.9,5,1.8v3.6c-1.9,0-3.8-0.4-5.5-1.3c-1.6-0.8-2.8-2.1-3.7-3.6
			C129.5,93.6,129.1,91.7,129.1,89.9z M147.1,69.9c-0.1-2.2-0.9-4.2-2.3-5.9c-1.3-1.4-3.2-2.2-5.1-2.1v-3.6c2.8-0.1,5.4,0.9,7.4,2.9
			c2,2.2,3.3,5,3.5,7.9L147.1,69.9z M147.1,88.6l3.5,0.8c-0.2,3-1.5,5.8-3.6,7.9c-2,1.9-4.6,3-7.4,2.9v-3.6c1.9,0.1,3.8-0.7,5.1-2.1
			C146.1,92.8,146.9,90.7,147.1,88.6z"/>
		<path class="st1" d="M155.7,99.2V58.4h3.8v40.9H155.7z M155.7,99.2V70.7h3.8v28.6H155.7z M157.3,79.2c0-1.7,0.4-3.4,1.2-4.8
			c0.8-1.4,1.9-2.6,3.2-3.4c1.4-0.8,3-1.3,4.6-1.2l-0.8,3.8c-1.6-0.1-3.2,0.5-4.3,1.6c-1.1,1-1.7,2.5-1.7,4L157.3,79.2z M171.5,79.2
			c0-1.5-0.6-3-1.7-4c-1.2-1.1-2.7-1.7-4.3-1.6l0.8-3.8c1.6,0,3.2,0.4,4.6,1.2c1.3,0.8,2.5,2,3.2,3.4c0.8,1.5,1.2,3.1,1.2,4.8
			L171.5,79.2z M171.5,99.2v-20h3.8v20H171.5z"/>
		<path class="st1" d="M180.7,91c0-1.7,0.4-3.3,1.3-4.7c0.9-1.4,2.1-2.5,3.5-3.2c1.5-0.8,3.2-1.2,4.9-1.2v3.4
			c-1.6,0-3.1,0.5-4.2,1.6c-1.1,1.1-1.8,2.6-1.7,4.1H180.7z M189.9,100.1c-1.6,0-3.2-0.4-4.6-1.2c-1.4-0.8-2.5-2-3.3-3.3
			c-0.8-1.4-1.3-3-1.3-4.6h3.8c0,1.5,0.6,2.9,1.7,4c1,1,2.3,1.6,3.7,1.6V100.1z M185,78.5l-3.7-0.8c0.2-1.5,0.7-2.9,1.7-4.1
			c0.9-1.2,2.1-2.2,3.5-2.8c1.4-0.7,3-1.1,4.5-1.1v3.6c-1.4,0-2.8,0.4-4,1.2C185.8,75.6,185.1,77,185,78.5z M189.9,100.1v-3.4
			c1.4,0,2.7-0.4,3.9-1.1c1.1-0.9,2-2,2.4-3.3c0.6-1.7,0.9-3.4,0.9-5.2h2.2c0,2.3-0.3,4.6-1.2,6.8c-0.7,1.8-1.8,3.4-3.3,4.6
			C193.3,99.5,191.6,100.1,189.9,100.1L189.9,100.1z M190.4,85.3v-3.4h9.6v3.4H190.4z M200.8,79.2H197c0-1.6-0.6-3.1-1.7-4.2
			c-1.1-1.1-2.7-1.7-4.3-1.7v-3.6c1.7,0,3.5,0.4,5,1.2c1.4,0.8,2.6,2,3.5,3.4C200.4,75.8,200.8,77.5,200.8,79.2L200.8,79.2z M197,87
			v-7.8h2.2V87H197z M197,99.3v-20h3.8v20H197z"/>
		<path class="st1" d="M206.8,99.2V70.7h3.8v28.6H206.8z M208.3,79.5c0-1.7,0.3-3.3,1-4.8c0.6-1.4,1.6-2.5,2.8-3.4
			c1.2-0.8,2.6-1.2,4-1.2l-0.8,3.8c-1.3,0-2.6,0.6-3.5,1.6c-0.9,1.1-1.4,2.6-1.4,4.1L208.3,79.5z M218.8,75.1
			c-0.5-0.4-1.1-0.7-1.7-0.9c-0.5-0.2-1.1-0.3-1.7-0.3l0.8-3.8c0.8,0,1.6,0.1,2.4,0.4c0.8,0.3,1.5,0.8,2.2,1.3L218.8,75.1z"/>
		<path class="st1" d="M226.2,99.2V58.4h3.8v40.9H226.2z"/>
		<path class="st1" d="M236,80.1c0-1.8,0.4-3.7,1.3-5.3c0.8-1.5,2-2.8,3.5-3.7c1.5-0.9,3.2-1.4,5-1.3v3.6c-1.7-0.1-3.3,0.6-4.4,1.8
			c-1.1,1.4-1.7,3.1-1.6,4.9H236z M236,89.9v-9.8h3.8v9.8H236z M236,89.9h3.8c-0.1,1.8,0.5,3.5,1.6,4.9c1.1,1.2,2.7,1.9,4.4,1.8v3.6
			c-1.8,0-3.5-0.4-5-1.3c-1.5-0.9-2.7-2.1-3.5-3.7C236.4,93.5,236,91.7,236,89.9z M236.3,86.3V83h19.2v3.3H236.3z M245.7,100.1v-3.6
			h0.2v3.6H245.7z M255.5,79.2h-3.8c0-1.6-0.6-3.1-1.8-4.2c-1.1-1.1-2.7-1.7-4.3-1.7v-3.6c1.7,0,3.5,0.4,5,1.2
			c1.4,0.8,2.6,2,3.5,3.4C255.1,75.9,255.5,77.5,255.5,79.2L255.5,79.2z M251.9,91.4l3.7,0.8c-0.2,1.5-0.7,2.8-1.6,4
			c-0.9,1.2-2.1,2.2-3.4,2.9c-1.4,0.7-3,1.1-4.6,1.1v-3.6c1.4,0,2.8-0.4,4-1.3C251.1,94.3,251.8,92.9,251.9,91.4z M251.8,83v-3.8
			h3.8V83H251.8z"/>
		<path class="st1" d="M263.5,91.3c0.1,1.5,0.8,2.9,2,3.9c1.2,0.8,2.6,1.3,4,1.3v3.6c-1.6,0-3.2-0.4-4.6-1.1
			c-1.4-0.7-2.6-1.6-3.5-2.9c-0.9-1.2-1.4-2.5-1.6-4L263.5,91.3z M260.8,77.5c0-2.9,1.5-5.5,4.1-6.8c1.3-0.7,2.8-1,4.3-1v3.6
			c-1.2,0-2.4,0.4-3.3,1.2c-0.9,0.8-1.4,1.9-1.3,3H260.8z M273.9,89.5c-0.8-0.8-1.7-1.4-2.6-1.9c-1.1-0.6-2.2-1.1-3.4-1.7
			c-1.2-0.5-2.3-1.2-3.4-1.9c-1.1-0.7-1.9-1.6-2.6-2.7c-0.7-1.2-1.1-2.6-1-3.9h3.8c0,1,0.3,1.9,1,2.6c0.8,0.7,1.7,1.4,2.6,1.8
			c1.1,0.5,2.2,1.1,3.4,1.6c1.2,0.5,2.3,1.2,3.4,1.9c1,0.7,1.9,1.6,2.6,2.7c0.7,1.2,1.1,2.6,1,4h-3.8
			C274.9,91.2,274.5,90.2,273.9,89.5z M275.1,78.5c-0.1-1.5-0.8-3-2-3.9c-1.2-0.8-2.6-1.3-4-1.2v-3.6c1.6,0,3.2,0.3,4.6,1
			c1.3,0.7,2.5,1.6,3.4,2.8c0.9,1.2,1.5,2.6,1.6,4.1L275.1,78.5z M269.5,100.1v-3.6c1.4,0.1,2.8-0.4,3.9-1.3c1-0.7,1.6-1.9,1.5-3.1
			h3.8c0,1.5-0.4,2.9-1.2,4.1c-0.8,1.2-2,2.2-3.3,2.8C272.7,99.7,271.1,100.1,269.5,100.1L269.5,100.1z"/>
		<path class="st1" d="M292.2,62.8v-3.6h22.3v3.6H292.2z M301.5,99.2v-40h3.8v40H301.5z"/>
		<path class="st1" d="M316.8,99.2V70.7h3.8v28.6H316.8z M318.3,79.5c0-1.7,0.3-3.3,1-4.8c0.6-1.4,1.6-2.5,2.8-3.4
			c1.2-0.8,2.6-1.2,4-1.2l-0.8,3.8c-1.3,0-2.6,0.6-3.5,1.6c-0.9,1.1-1.4,2.6-1.4,4.1L318.3,79.5z M328.8,75.1
			c-0.5-0.4-1.1-0.7-1.8-0.9c-0.5-0.2-1.1-0.3-1.7-0.3l0.8-3.8c0.8,0,1.6,0.1,2.4,0.4c0.8,0.3,1.5,0.8,2.2,1.3L328.8,75.1z"/>
		<path class="st1" d="M333,91c0-1.6,0.4-3.3,1.3-4.7c0.9-1.4,2.1-2.5,3.5-3.2c1.5-0.8,3.2-1.2,5-1.2v3.4c-1.6,0-3.1,0.5-4.2,1.6
			c-1.1,1-1.8,2.5-1.7,4.1H333z M342.2,100.1c-1.6,0-3.2-0.4-4.5-1.2c-1.4-0.8-2.5-1.9-3.3-3.3c-0.8-1.4-1.3-3-1.3-4.7h3.8
			c0,1.5,0.6,2.9,1.7,4c1,1,2.3,1.6,3.7,1.6L342.2,100.1z M337.3,78.6l-3.7-0.8c0.2-1.5,0.7-2.9,1.6-4.1c0.9-1.2,2.1-2.2,3.5-2.8
			c1.4-0.7,3-1.1,4.6-1.1v3.6c-1.4,0-2.8,0.4-4,1.2C338.1,75.6,337.4,77,337.3,78.6L337.3,78.6z M342.2,100.1v-3.5
			c1.4,0,2.7-0.4,3.9-1.1c1.1-0.9,2-2,2.4-3.3c0.6-1.7,0.9-3.4,0.9-5.2h2.2c0,2.3-0.4,4.7-1.2,6.8c-0.7,1.8-1.8,3.4-3.3,4.6
			C345.6,99.5,343.9,100.1,342.2,100.1L342.2,100.1z M342.8,85.3v-3.5h9.6v3.4L342.8,85.3z M353.1,79.3h-3.8c0-1.6-0.6-3.1-1.7-4.2
			c-1.1-1.1-2.7-1.7-4.3-1.7v-3.6c1.7,0,3.5,0.4,5,1.2c1.4,0.8,2.6,2,3.5,3.4C352.7,75.9,353.1,77.5,353.1,79.3L353.1,79.3z
			 M349.3,87v-7.8h2.2V87H349.3z M349.3,99.3v-20h3.8v20H349.3z"/>
		<path class="st1" d="M359.1,99.2V70.7h3.8v28.6H359.1z M360.7,79.2c0-1.7,0.4-3.4,1.2-4.8c0.8-1.4,1.9-2.6,3.2-3.4
			c1.4-0.8,3-1.3,4.6-1.2l-0.8,3.8c-1.6-0.1-3.2,0.5-4.3,1.6c-1.1,1-1.7,2.5-1.7,4L360.7,79.2z M374.9,79.2c0-1.5-0.6-3-1.7-4
			c-1.2-1.1-2.7-1.7-4.3-1.6l0.8-3.8c1.6,0,3.2,0.4,4.6,1.2c1.3,0.8,2.5,2,3.2,3.4c0.8,1.5,1.2,3.1,1.2,4.8L374.9,79.2z M374.9,99.2
			v-20h3.8v20H374.9z"/>
		<path class="st1" d="M387.2,91.3c0.1,1.5,0.8,2.9,2,3.9c1.2,0.8,2.6,1.3,4,1.3v3.6c-1.6,0-3.2-0.4-4.6-1.1
			c-1.4-0.7-2.5-1.6-3.5-2.9c-0.9-1.2-1.4-2.5-1.6-4L387.2,91.3z M384.5,77.5c0-1.4,0.4-2.8,1.1-4c0.7-1.2,1.8-2.1,3-2.8
			c1.3-0.7,2.8-1,4.3-1v3.6c-1.2,0-2.4,0.4-3.3,1.2c-0.9,0.8-1.3,1.9-1.3,3H384.5z M397.6,89.5c-0.8-0.8-1.7-1.4-2.6-1.9
			c-1.1-0.6-2.2-1.1-3.4-1.7c-1.2-0.5-2.3-1.2-3.4-1.9c-1.1-0.7-1.9-1.6-2.6-2.7c-0.7-1.2-1.1-2.6-1-3.9h3.8c0,1,0.3,1.9,1,2.6
			c0.8,0.8,1.7,1.4,2.7,1.8c1.1,0.5,2.2,1.1,3.4,1.6c1.2,0.5,2.3,1.2,3.4,1.9c1,0.7,1.9,1.6,2.6,2.7c0.7,1.2,1.1,2.6,1,4h-3.8
			C398.7,91.1,398.3,90.2,397.6,89.5z M398.9,78.5c-0.1-1.5-0.8-3-2-3.9c-1.2-0.8-2.6-1.3-4-1.2v-3.6c1.6,0,3.2,0.3,4.6,1
			c1.3,0.7,2.5,1.6,3.4,2.8c0.9,1.2,1.5,2.6,1.6,4.1L398.9,78.5z M393.2,100.1v-3.6c1.4,0,2.8-0.4,3.9-1.3c1-0.7,1.5-1.9,1.5-3.1
			h3.8c0,1.5-0.4,2.9-1.2,4.1c-0.8,1.2-2,2.2-3.3,2.8C396.5,99.7,394.9,100.1,393.2,100.1L393.2,100.1z"/>
		<path class="st1" d="M408.5,99.2V58.4h3.8v40.9H408.5z"/>
		<path class="st1" d="M418.9,91c0-1.6,0.4-3.3,1.3-4.7c0.9-1.4,2.1-2.5,3.5-3.2c1.5-0.8,3.2-1.2,4.9-1.2v3.4
			c-1.6,0-3.1,0.5-4.2,1.6c-1.1,1-1.8,2.5-1.7,4.1H418.9z M428,100.1c-1.6,0-3.2-0.4-4.5-1.2c-1.4-0.8-2.5-1.9-3.4-3.3
			c-0.8-1.4-1.3-3-1.3-4.7h3.8c0,1.5,0.6,2.9,1.6,4c1,1,2.3,1.6,3.7,1.7L428,100.1z M423.2,78.6l-3.7-0.8c0.2-1.5,0.7-2.9,1.6-4.1
			c0.9-1.2,2.1-2.2,3.5-2.8c1.4-0.7,3-1.1,4.6-1.1v3.6c-1.4,0-2.8,0.4-4,1.2C424,75.6,423.2,77,423.2,78.6L423.2,78.6z M428,100.1
			v-3.4c1.4,0,2.7-0.4,3.9-1.1c1.1-0.9,2-2,2.4-3.3c0.6-1.7,0.9-3.4,0.9-5.2h2.2c0,2.3-0.4,4.7-1.2,6.8c-0.7,1.8-1.8,3.4-3.3,4.6
			C431.5,99.5,429.8,100.1,428,100.1z M428.6,85.3v-3.4h9.6v3.4L428.6,85.3z M438.9,79.2h-3.8c0-1.6-0.6-3.1-1.7-4.2
			c-1.2-1.1-2.7-1.7-4.3-1.7v-3.6c1.7,0,3.5,0.4,5,1.2C437.1,72.7,439,75.8,438.9,79.2z M435.2,87v-7.8h2.2V87H435.2z M435.2,99.3
			v-20h3.8v20H435.2z"/>
		<path class="st1" d="M443.5,74.1v-3.4h14.3v3.4L443.5,74.1z M446.8,91.3V59.2h3.8v32.1L446.8,91.3z M446.8,91.2h3.8
			c0,1,0.1,1.9,0.5,2.8c0.3,0.7,0.8,1.3,1.4,1.8c0.6,0.4,1.4,0.7,2.1,0.6l-0.3,3.6c-2.1,0.1-4.1-0.8-5.5-2.3
			C447.4,95.9,446.7,93.6,446.8,91.2z M457.3,95.5l1.7,3c-0.6,0.5-1.4,0.9-2.1,1.2c-0.8,0.3-1.6,0.4-2.5,0.4l0.3-3.6
			c0.5,0,1-0.1,1.4-0.3C456.4,96,456.9,95.8,457.3,95.5L457.3,95.5z"/>
		<path class="st1" d="M461.2,80.1c0-1.8,0.4-3.7,1.3-5.3c0.8-1.5,2-2.8,3.5-3.6c1.5-0.9,3.2-1.4,5-1.3v3.6
			c-1.7-0.1-3.3,0.6-4.4,1.8c-1.1,1.4-1.7,3.1-1.6,4.9L461.2,80.1z M461.2,89.9V80h3.8v9.8L461.2,89.9z M461.2,89.8h3.8
			c-0.1,1.8,0.5,3.5,1.6,4.9c1.1,1.2,2.7,1.9,4.4,1.8v3.6c-1.8,0-3.5-0.4-5-1.3c-1.5-0.9-2.7-2.2-3.5-3.7
			C461.6,93.5,461.2,91.6,461.2,89.8z M470.9,73.4v-3.6h0.2v3.6H470.9z M470.9,100.1v-3.6h0.2v3.6H470.9z M480.8,80.1H477
			c0.1-1.8-0.4-3.5-1.6-4.9c-1.1-1.2-2.8-1.8-4.4-1.8v-3.6c1.8,0,3.5,0.4,5,1.3c1.5,0.9,2.7,2.1,3.5,3.7
			C480.4,76.4,480.8,78.2,480.8,80.1z M480.8,89.8c0,1.8-0.4,3.7-1.3,5.3c-0.8,1.5-2,2.8-3.5,3.7c-1.5,0.9-3.2,1.4-5,1.3v-3.6
			c1.7,0.1,3.3-0.6,4.4-1.8c1.1-1.4,1.7-3.1,1.6-4.9H480.8z M477,89.9V80h3.8v9.8L477,89.9z"/>
		<path class="st1" d="M486.2,99.2V70.7h3.8v28.6H486.2z M487.7,79.5c0-1.7,0.3-3.3,1-4.8c0.6-1.4,1.6-2.5,2.8-3.4
			c1.2-0.8,2.6-1.2,4-1.2l-0.8,3.8c-1.3,0-2.6,0.6-3.5,1.6c-0.9,1.2-1.4,2.6-1.3,4.1L487.7,79.5z M498.2,75.1
			c-0.5-0.4-1.1-0.7-1.7-0.9c-0.5-0.2-1.1-0.3-1.7-0.3l0.8-3.8c0.8,0,1.6,0.1,2.4,0.4c0.8,0.3,1.5,0.8,2.2,1.3L498.2,75.1z"/>
		
			<linearGradient id="SVGID_1_" gradientUnits="userSpaceOnUse" x1="109.7784" y1="73.0525" x2="82.7684" y2="84.5125" gradientTransform="matrix(1 0 0 -1 0 177.8898)">
			<stop  offset="0" style="stop-color:#FFD600"/>
			<stop  offset="1" style="stop-color:#D99C6E"/>
		</linearGradient>
		<path class="st2" d="M76,84.1c-5.2,3-10.3,6.3-15.1,10c14,23.9,49.3,16.2,49.3,16.2V88C110.1,88,97,98.1,76,84.1z"/>
		
			<linearGradient id="SVGID_2_" gradientUnits="userSpaceOnUse" x1="109.6502" y1="109.5937" x2="53.7402" y2="108.0537" gradientTransform="matrix(1 0 0 -1 0 177.8898)">
			<stop  offset="0" style="stop-color:#FFFA00"/>
			<stop  offset="1" style="stop-color:#FFD600"/>
		</linearGradient>
		<path class="st3" d="M110.1,74.2V51.1c-16.3-16.3-50,15.4-50,15.4v25.3C60.1,91.8,95.1,64,110.1,74.2z M97,65.9c0,0-8-2.2-24,10.3
			v-3c0,0,14-11.9,24-10.8V65.9z M97,61.1c0,0-8-1.6-24,10.9v-3.4c0,0,14.2-12.4,24-10.9V61.1z M97,56.4c0,0-8-1.8-24,10.7V64
			c0,0,14.5-12.7,24-10.7V56.4z"/>
	</g>
</g>
</svg>
