<svg xmlns="http://www.w3.org/2000/svg" xmlns:xlink="http://www.w3.org/1999/xlink" viewBox="0 0 581.51 177.25"><defs><style>.cls-1{fill:#2196f3;}.cls-2{fill:#fffa00;}.cls-3{fill:url(#linear-gradient);}.cls-4{fill:url(#linear-gradient-2);}</style><linearGradient id="linear-gradient" x1="109.79" y1="104.81" x2="82.78" y2="93.35" gradientUnits="userSpaceOnUse"><stop offset="0" stop-color="#ffd600"/><stop offset="1" stop-color="#d99c6e"/></linearGradient><linearGradient id="linear-gradient-2" x1="109.65" y1="68.29" x2="53.74" y2="69.83" gradientUnits="userSpaceOnUse"><stop offset="0" stop-color="#fffa00"/><stop offset="1" stop-color="#ffd600"/></linearGradient></defs><g id="Layer_2" data-name="Layer 2"><g id="Layer_1-2" data-name="Layer 1"><rect class="cls-1" width="581.51" height="177.25"/><path class="cls-2" d="M129.13,68.6a10.68,10.68,0,0,1,1.31-5.39,9.09,9.09,0,0,1,3.72-3.6,11.5,11.5,0,0,1,5.54-1.29v3.6a6.88,6.88,0,0,0-5,1.74,6.56,6.56,0,0,0-1.8,4.94Zm0,21.26V68.6h3.77V89.86Zm0,0h3.77a6.56,6.56,0,0,0,1.8,4.91,6.78,6.78,0,0,0,5,1.78v3.6a11.5,11.5,0,0,1-5.54-1.29,9.21,9.21,0,0,1-3.72-3.6A10.69,10.69,0,0,1,129.13,89.86Zm17.94-20A10,10,0,0,0,144.73,64a6.59,6.59,0,0,0-5.09-2.11v-3.6a10,10,0,0,1,7.4,2.86,13,13,0,0,1,3.51,7.94Zm0,18.74,3.48.75A13.07,13.07,0,0,1,147,97.29a10.09,10.09,0,0,1-7.4,2.86v-3.6a6.6,6.6,0,0,0,5.09-2.12A10,10,0,0,0,147.07,88.6Z"/><path class="cls-2" d="M155.7,99.23V58.38h3.77V99.23Zm0,0V70.66h3.77V99.23Zm1.6-20a9.72,9.72,0,0,1,1.2-4.83A9.07,9.07,0,0,1,161.72,71a8.73,8.73,0,0,1,4.6-1.23l-.8,3.78a6.09,6.09,0,0,0-4.34,1.6,5.3,5.3,0,0,0-1.71,4Zm14.22,0a5.3,5.3,0,0,0-1.71-4,6,6,0,0,0-4.29-1.6l.8-3.78a8.68,8.68,0,0,1,4.6,1.23,8.79,8.79,0,0,1,3.2,3.37,9.93,9.93,0,0,1,1.18,4.83Zm0,20v-20h3.78v20Z"/><path class="cls-2" d="M180.72,91A8.48,8.48,0,0,1,182,86.29a9.41,9.41,0,0,1,3.48-3.23,10.18,10.18,0,0,1,4.95-1.2v3.43a5.94,5.94,0,0,0-4.23,1.6A5.33,5.33,0,0,0,184.49,91Zm9.15,9.14a9,9,0,0,1-4.55-1.2A9.24,9.24,0,0,1,182,95.6,8.82,8.82,0,0,1,180.72,91h3.77A5.5,5.5,0,0,0,186.15,95a5.17,5.17,0,0,0,3.72,1.63ZM185,78.55l-3.66-.8A8.23,8.23,0,0,1,183,73.69a9.74,9.74,0,0,1,3.46-2.83A10.13,10.13,0,0,1,191,69.8v3.6a6.66,6.66,0,0,0-4,1.23A5.23,5.23,0,0,0,185,78.55Zm4.86,21.54V96.66a6.38,6.38,0,0,0,3.85-1.14,7.24,7.24,0,0,0,2.43-3.34A14.43,14.43,0,0,0,197,87h2.17A18.17,18.17,0,0,1,198,93.8a11,11,0,0,1-3.29,4.63A7.51,7.51,0,0,1,189.87,100.09Zm.57-14.8V81.86H200v3.43Zm10.34-6.06H197a5.55,5.55,0,0,0-1.72-4.17A5.93,5.93,0,0,0,191,73.4V69.8A10.1,10.1,0,0,1,196,71a9.31,9.31,0,0,1,3.48,3.37A9.19,9.19,0,0,1,200.78,79.23ZM197,87V79.18h2.17V87Zm0,12.28v-20h3.77v20Z"/><path class="cls-2" d="M206.78,99.23V70.66h3.77V99.23Zm1.54-19.71a11,11,0,0,1,1-4.83,8.39,8.39,0,0,1,2.83-3.37,7,7,0,0,1,4-1.23l-.8,3.77a4.43,4.43,0,0,0-3.49,1.6,6,6,0,0,0-1.37,4.06Zm10.51-4.4a8.1,8.1,0,0,0-1.74-.94,4.68,4.68,0,0,0-1.68-.32l.8-3.77a6.94,6.94,0,0,1,2.37.4,7.61,7.61,0,0,1,2.2,1.31Z"/><path class="cls-2" d="M226.21,99.23V58.38H230V99.23Z"/><path class="cls-2" d="M236,80.09a10.7,10.7,0,0,1,1.28-5.29,9.72,9.72,0,0,1,3.49-3.65,9.34,9.34,0,0,1,5-1.35v3.6a5.67,5.67,0,0,0-4.4,1.75,7,7,0,0,0-1.6,4.94Zm0,9.77V80.09h3.77v9.77Zm0,0h3.77a7,7,0,0,0,1.6,4.91,5.59,5.59,0,0,0,4.4,1.78v3.6a9.34,9.34,0,0,1-5-1.35,9.72,9.72,0,0,1-3.49-3.65A10.7,10.7,0,0,1,236,89.86Zm.34-3.6V83h19.2v3.26Zm9.37,13.89v-3.6h.23v3.6Zm9.83-20.92h-3.77A5.55,5.55,0,0,0,250,75.06a5.93,5.93,0,0,0-4.28-1.66V69.8a10.1,10.1,0,0,1,5,1.23,9.38,9.38,0,0,1,3.48,3.37A9.19,9.19,0,0,1,255.52,79.23ZM251.86,91.4l3.66.8a8.46,8.46,0,0,1-1.63,4,9.76,9.76,0,0,1-3.43,2.86,10.08,10.08,0,0,1-4.6,1.06v-3.6a6.57,6.57,0,0,0,4-1.26A5.26,5.26,0,0,0,251.86,91.4Zm-.11-8.4V79.23h3.77V83Z"/><path class="cls-2" d="M263.46,91.35a5.25,5.25,0,0,0,2,3.88,6.55,6.55,0,0,0,4,1.26v3.6A10,10,0,0,1,264.89,99a9.51,9.51,0,0,1-3.46-2.86,8.32,8.32,0,0,1-1.63-4Zm-2.69-13.83a7.45,7.45,0,0,1,4.09-6.77,9,9,0,0,1,4.26-1v3.6a4.71,4.71,0,0,0-3.26,1.17,3.83,3.83,0,0,0-1.32,3Zm13.09,12a10.4,10.4,0,0,0-2.63-1.86c-1.07-.55-2.2-1.1-3.4-1.66a26,26,0,0,1-3.4-1.88,9,9,0,0,1-2.63-2.66,7.17,7.17,0,0,1-1-3.94h3.77a3.51,3.51,0,0,0,1,2.57,9.86,9.86,0,0,0,2.63,1.83c1.07.53,2.2,1.08,3.4,1.63a24,24,0,0,1,3.4,1.91,9.51,9.51,0,0,1,2.63,2.66,7.16,7.16,0,0,1,1,4h-3.77A3.5,3.5,0,0,0,273.86,89.52Zm1.26-11a5.24,5.24,0,0,0-2-3.91,6.71,6.71,0,0,0-4-1.23v-3.6a10.13,10.13,0,0,1,4.6,1,9.77,9.77,0,0,1,3.42,2.83,8.27,8.27,0,0,1,1.63,4.06Zm-5.66,21.6v-3.6a5.91,5.91,0,0,0,3.88-1.26,3.89,3.89,0,0,0,1.55-3.14h3.77a7.16,7.16,0,0,1-1.2,4.08A8.43,8.43,0,0,1,274.17,99,10.2,10.2,0,0,1,269.46,100.09Z"/><path class="cls-2" d="M292.2,62.83v-3.6h22.28v3.6Zm9.26,36.4v-40h3.77v40Z"/><path class="cls-2" d="M316.77,99.23V70.66h3.77V99.23Zm1.54-19.71a11.11,11.11,0,0,1,1-4.83,8.39,8.39,0,0,1,2.83-3.37,7,7,0,0,1,4-1.23l-.8,3.77a4.43,4.43,0,0,0-3.49,1.6,6,6,0,0,0-1.37,4.06Zm10.52-4.4a8.16,8.16,0,0,0-1.75-.94,4.68,4.68,0,0,0-1.68-.32l.8-3.77a6.86,6.86,0,0,1,2.37.4,7.61,7.61,0,0,1,2.2,1.31Z"/><path class="cls-2" d="M333.05,91a8.48,8.48,0,0,1,1.29-4.66,9.41,9.41,0,0,1,3.48-3.23,10.18,10.18,0,0,1,4.95-1.2v3.43a5.94,5.94,0,0,0-4.23,1.6A5.32,5.32,0,0,0,336.83,91Zm9.15,9.14a9,9,0,0,1-4.55-1.2,9.24,9.24,0,0,1-3.34-3.29A8.82,8.82,0,0,1,333.05,91h3.78A5.49,5.49,0,0,0,338.48,95a5.17,5.17,0,0,0,3.72,1.63Zm-4.86-21.54-3.66-.8a8.23,8.23,0,0,1,1.63-4.06,9.83,9.83,0,0,1,3.46-2.83,10.13,10.13,0,0,1,4.57-1.06v3.6a6.66,6.66,0,0,0-4,1.23A5.23,5.23,0,0,0,337.34,78.55Zm4.86,21.54V96.66a6.38,6.38,0,0,0,3.85-1.14,7.24,7.24,0,0,0,2.43-3.34,14.43,14.43,0,0,0,.86-5.23h2.17a18.17,18.17,0,0,1-1.2,6.85A11,11,0,0,1,347,98.43,7.51,7.51,0,0,1,342.2,100.09Zm.57-14.8V81.86h9.6v3.43Zm10.34-6.06h-3.77a5.55,5.55,0,0,0-1.72-4.17,5.93,5.93,0,0,0-4.28-1.66V69.8a10.07,10.07,0,0,1,5,1.23,9.31,9.31,0,0,1,3.48,3.37A9.19,9.19,0,0,1,353.11,79.23ZM349.34,87V79.18h2.17V87Zm0,12.28v-20h3.77v20Z"/><path class="cls-2" d="M359.11,99.23V70.66h3.77V99.23Zm1.6-20a9.72,9.72,0,0,1,1.2-4.83A9.09,9.09,0,0,1,365.14,71a8.68,8.68,0,0,1,4.6-1.23l-.8,3.78a6.09,6.09,0,0,0-4.34,1.6,5.28,5.28,0,0,0-1.72,4Zm14.23,0a5.28,5.28,0,0,0-1.72-4,6,6,0,0,0-4.28-1.6l.8-3.78a8.73,8.73,0,0,1,4.6,1.23,8.86,8.86,0,0,1,3.2,3.37,9.92,9.92,0,0,1,1.17,4.83Zm0,20v-20h3.77v20Z"/><path class="cls-2" d="M387.22,91.35a5.25,5.25,0,0,0,2,3.88,6.57,6.57,0,0,0,4,1.26v3.6A10,10,0,0,1,388.65,99a9.59,9.59,0,0,1-3.46-2.86,8.42,8.42,0,0,1-1.63-4Zm-2.68-13.83a7.52,7.52,0,0,1,1.08-4,7.44,7.44,0,0,1,3-2.77,9,9,0,0,1,4.26-1v3.6a4.73,4.73,0,0,0-3.26,1.17,3.82,3.82,0,0,0-1.31,3Zm13.08,12A10.22,10.22,0,0,0,395,87.66c-1.06-.55-2.2-1.1-3.4-1.66a26,26,0,0,1-3.4-1.88,9.13,9.13,0,0,1-2.63-2.66,7.17,7.17,0,0,1-1-3.94h3.77a3.47,3.47,0,0,0,1,2.57A9.8,9.8,0,0,0,392,81.92c1.07.53,2.2,1.08,3.4,1.63a23.42,23.42,0,0,1,3.4,1.91,9.38,9.38,0,0,1,2.63,2.66,7.08,7.08,0,0,1,1,4h-3.77A3.46,3.46,0,0,0,397.62,89.52Zm1.26-11a5.21,5.21,0,0,0-2-3.91,6.68,6.68,0,0,0-4-1.23v-3.6a10.1,10.1,0,0,1,4.6,1,9.9,9.9,0,0,1,3.43,2.83,8.46,8.46,0,0,1,1.63,4.06Zm-5.66,21.6v-3.6a6,6,0,0,0,3.89-1.26,3.91,3.91,0,0,0,1.54-3.14h3.77a7.16,7.16,0,0,1-1.2,4.08A8.4,8.4,0,0,1,397.94,99,10.27,10.27,0,0,1,393.22,100.09Z"/><path class="cls-2" d="M408.53,99.23V58.38h3.78V99.23Z"/><path class="cls-2" d="M418.88,91a8.47,8.47,0,0,1,1.28-4.66,9.37,9.37,0,0,1,3.49-3.23,10.12,10.12,0,0,1,4.94-1.2v3.43a5.94,5.94,0,0,0-4.23,1.6A5.32,5.32,0,0,0,422.65,91Zm9.14,9.14a8.94,8.94,0,0,1-4.54-1.2,9.19,9.19,0,0,1-3.35-3.29A8.81,8.81,0,0,1,418.88,91h3.77A5.49,5.49,0,0,0,424.3,95,5.19,5.19,0,0,0,428,96.66Zm-4.86-21.54-3.66-.8a8.32,8.32,0,0,1,1.63-4.06,9.83,9.83,0,0,1,3.46-2.83,10.13,10.13,0,0,1,4.57-1.06v3.6a6.68,6.68,0,0,0-4,1.23A5.23,5.23,0,0,0,423.16,78.55ZM428,100.09V96.66a6.36,6.36,0,0,0,3.85-1.14,7.24,7.24,0,0,0,2.43-3.34,14.43,14.43,0,0,0,.86-5.23h2.17a18.17,18.17,0,0,1-1.2,6.85,11,11,0,0,1-3.28,4.63A7.51,7.51,0,0,1,428,100.09Zm.57-14.8V81.86h9.6v3.43Zm10.34-6.06h-3.77a5.58,5.58,0,0,0-1.71-4.17,6,6,0,0,0-4.29-1.66V69.8a10.07,10.07,0,0,1,5,1.23,9.17,9.17,0,0,1,4.77,8.2ZM435.16,87V79.18h2.17V87Zm0,12.28v-20h3.77v20Z"/><path class="cls-2" d="M443.5,74.09V70.66h14.29v3.43Zm3.32,17.2V59.18l3.77,0V91.29Zm0-.06h3.77a7.44,7.44,0,0,0,.48,2.83,4,4,0,0,0,1.38,1.8,3.59,3.59,0,0,0,2.14.63l-.29,3.6a6.82,6.82,0,0,1-5.48-2.34A9.72,9.72,0,0,1,446.82,91.23Zm10.45,4.29,1.66,3a7.22,7.22,0,0,1-2.14,1.17,7.41,7.41,0,0,1-2.49.43l.29-3.6a3.51,3.51,0,0,0,1.4-.29A9.85,9.85,0,0,0,457.27,95.52Z"/><path class="cls-2" d="M461.22,80.09a10.81,10.81,0,0,1,1.28-5.29A9.72,9.72,0,0,1,466,71.15a9.34,9.34,0,0,1,5-1.35v3.6a5.67,5.67,0,0,0-4.4,1.75,7,7,0,0,0-1.6,4.94Zm0,9.77V80H465v9.83Zm0-.06H465a7.06,7.06,0,0,0,1.6,4.92,5.62,5.62,0,0,0,4.4,1.77v3.6a9.42,9.42,0,0,1-5-1.34,9.82,9.82,0,0,1-3.49-3.66A10.76,10.76,0,0,1,461.22,89.8Zm9.65-16.4V69.8h.23v3.6Zm0,26.69v-3.6h.23v3.6Zm9.89-20H477a7.16,7.16,0,0,0-1.57-4.94A5.68,5.68,0,0,0,471,73.4V69.8a9.39,9.39,0,0,1,5,1.35,9.69,9.69,0,0,1,3.48,3.65A10.71,10.71,0,0,1,480.76,80.09Zm0,9.71a10.66,10.66,0,0,1-1.29,5.29A9.79,9.79,0,0,1,476,98.75a9.47,9.47,0,0,1-5,1.34v-3.6a5.63,5.63,0,0,0,4.43-1.77A7.19,7.19,0,0,0,477,89.8Zm-3.77.06V80h3.77v9.83Z"/><path class="cls-2" d="M486.19,99.23V70.66H490V99.23Zm1.54-19.71a11,11,0,0,1,1-4.83,8.31,8.31,0,0,1,2.83-3.37,7,7,0,0,1,4-1.23l-.8,3.77a4.39,4.39,0,0,0-3.48,1.6A6,6,0,0,0,490,79.52Zm10.51-4.4a8.35,8.35,0,0,0-1.74-.94,4.69,4.69,0,0,0-1.69-.32l.8-3.77a7,7,0,0,1,2.38.4,7.61,7.61,0,0,1,2.2,1.31Z"/><path class="cls-3" d="M76,84.13a140.77,140.77,0,0,0-15.12,10c14,23.94,49.25,16.23,49.25,16.23V88S97,98.06,76,84.13Z"/><path class="cls-4" d="M110.1,74.22V51.12c-16.26-16.27-50,15.43-50,15.43V91.8S95.14,64,110.1,74.22ZM97,65.94s-8-2.15-24,10.33v-3S87,61.39,97,62.47Zm0-4.85S89,59.52,73,72V68.62s14.2-12.39,24-10.89Zm0-4.65s-8-1.8-24,10.68V64S87.46,51.33,97,53.28Z"/><path class="cls-2" d="M423.69,113.35v-1.42h5.88v1.42Zm1.36-2.83a4,4,0,0,1,.83-2.68,2.8,2.8,0,0,1,2.26-1l.11,1.48a1.52,1.52,0,0,0-.88.26,1.7,1.7,0,0,0-.56.74,3,3,0,0,0-.2,1.17Zm0,13.18V110.52h1.56V123.7Zm4.31-15a2.51,2.51,0,0,0-.53-.29,1.58,1.58,0,0,0-.58-.11l-.11-1.48a3.3,3.3,0,0,1,1,.17,2.44,2.44,0,0,1,.88.49Z"/><path class="cls-2" d="M430.4,115.82a4.32,4.32,0,0,1,.53-2.18,4,4,0,0,1,1.43-1.51,3.87,3.87,0,0,1,2.06-.55v1.48a2.33,2.33,0,0,0-1.81.72,2.91,2.91,0,0,0-.66,2Zm0,4v-4H432v4Zm0,0H432a2.89,2.89,0,0,0,.66,2,2.3,2.3,0,0,0,1.81.73v1.49a3.88,3.88,0,0,1-2.06-.56,4,4,0,0,1-1.43-1.5A4.37,4.37,0,0,1,430.4,119.82Zm4-6.76v-1.48h.1v1.48Zm0,11v-1.49h.1v1.49Zm4.08-8.24h-1.56a3,3,0,0,0-.64-2,2.33,2.33,0,0,0-1.83-.72v-1.48a3.85,3.85,0,0,1,2.06.55,4,4,0,0,1,1.44,1.51A4.43,4.43,0,0,1,438.45,115.82Zm0,4a4.48,4.48,0,0,1-.53,2.18,4,4,0,0,1-1.44,1.5,3.86,3.86,0,0,1-2.06.56v-1.49a2.3,2.3,0,0,0,1.83-.73,2.93,2.93,0,0,0,.64-2Zm-1.56,0v-4h1.56v4Z"/><path class="cls-2" d="M440.68,123.7V111.93h1.56V123.7Zm.64-8.12a4.57,4.57,0,0,1,.42-2,3.48,3.48,0,0,1,1.17-1.39,2.92,2.92,0,0,1,1.66-.5l-.33,1.55a1.82,1.82,0,0,0-1.44.66,2.51,2.51,0,0,0-.56,1.67Zm4.33-1.81a3.68,3.68,0,0,0-.72-.39,1.84,1.84,0,0,0-.69-.13l.33-1.55a2.82,2.82,0,0,1,1,.16,3,3,0,0,1,.91.54Z"/><path class="cls-2" d="M452.69,119.84V107.22h1.55v12.62Zm0,0h1.55a2.71,2.71,0,0,0,.74,2,2.8,2.8,0,0,0,2.06.73v1.49a4.8,4.8,0,0,1-2.28-.53,3.79,3.79,0,0,1-1.53-1.49A4.4,4.4,0,0,1,452.69,119.82Zm8.66,0a4.4,4.4,0,0,1-.54,2.22,3.82,3.82,0,0,1-1.52,1.49,4.78,4.78,0,0,1-2.29.53v-1.49a2.82,2.82,0,0,0,2.06-.73,2.71,2.71,0,0,0,.74-2Zm-1.55,0V107.22h1.55v12.62Z"/><path class="cls-2" d="M464.18,123.7V106.87h1.55V123.7Zm1.31-4.47-1.1-1.11,4.82-6.19h2.05Zm4.43,4.47-4.19-6.52,1.41-.68,4.38,7.2Z"/><path class="cls-2" d="M473.52,123.7V111.93h1.55V123.7Zm.64-8.12a4.57,4.57,0,0,1,.42-2,3.4,3.4,0,0,1,1.17-1.39,2.9,2.9,0,0,1,1.66-.5l-.33,1.55a1.81,1.81,0,0,0-1.44.66,2.47,2.47,0,0,0-.57,1.67Zm4.33-1.81a3.68,3.68,0,0,0-.72-.39,1.87,1.87,0,0,0-.69-.13l.33-1.55a2.82,2.82,0,0,1,1,.16,3,3,0,0,1,.91.54Z"/><path class="cls-2" d="M480.23,120.29a3.55,3.55,0,0,1,.53-1.92,3.82,3.82,0,0,1,1.43-1.33,4.21,4.21,0,0,1,2-.49V118a2.45,2.45,0,0,0-1.74.66,2.18,2.18,0,0,0-.71,1.67Zm3.77,3.77a3.73,3.73,0,0,1-1.88-.5,3.77,3.77,0,0,1-1.37-1.35,3.59,3.59,0,0,1-.52-1.92h1.55a2.24,2.24,0,0,0,.69,1.68,2.1,2.1,0,0,0,1.53.67Zm-2-8.88-1.51-.33a3.42,3.42,0,0,1,.67-1.67,4,4,0,0,1,1.42-1.16,4,4,0,0,1,1.89-.44v1.48a2.74,2.74,0,0,0-1.65.51A2.11,2.11,0,0,0,482,115.18Zm2,8.88v-1.42a2.57,2.57,0,0,0,1.58-.47,2.87,2.87,0,0,0,1-1.37,5.89,5.89,0,0,0,.36-2.16h.89a7.53,7.53,0,0,1-.49,2.83,4.48,4.48,0,0,1-1.36,1.9A3.06,3.06,0,0,1,484,124.06Zm.23-6.1v-1.41h4V118Zm4.26-2.5h-1.55a2.27,2.27,0,0,0-.71-1.71,2.42,2.42,0,0,0-1.76-.69v-1.48a4.14,4.14,0,0,1,2.06.51,3.77,3.77,0,0,1,2,3.37Zm-1.55,3.18v-3.2h.89v3.2Zm0,5.06v-8.24h1.55v8.24Z"/><path class="cls-2" d="M492,110.38a1.13,1.13,0,0,1-.83-.33,1.11,1.11,0,0,1-.33-.82,1.17,1.17,0,0,1,.33-.84,1.1,1.1,0,0,1,.83-.34,1.16,1.16,0,0,1,1.17,1.18,1.08,1.08,0,0,1-.34.82A1.16,1.16,0,0,1,492,110.38Zm-.78,13.32V111.93h1.55V123.7Z"/><path class="cls-2" d="M495.81,123.7V111.93h1.56V123.7Zm.66-8.24a4,4,0,0,1,.5-2,3.67,3.67,0,0,1,1.33-1.38,3.54,3.54,0,0,1,1.89-.51l-.33,1.55a2.52,2.52,0,0,0-1.79.66,2.19,2.19,0,0,0-.7,1.67Zm5.86,0a2.19,2.19,0,0,0-.7-1.67,2.49,2.49,0,0,0-1.77-.66l.33-1.55a3.58,3.58,0,0,1,1.9.51,3.62,3.62,0,0,1,1.31,1.38,4,4,0,0,1,.49,2Zm0,8.24v-8.24h1.56v8.24Z"/><path class="cls-2" d="M505.89,115.82a4.32,4.32,0,0,1,.53-2.18,4,4,0,0,1,1.43-1.51,3.87,3.87,0,0,1,2.06-.55v1.48a2.33,2.33,0,0,0-1.81.72,2.91,2.91,0,0,0-.66,2Zm0,4v-4h1.55v4Zm0,0h1.55a2.92,2.92,0,0,0,.66,2,2.33,2.33,0,0,0,1.81.73v1.48a3.87,3.87,0,0,1-3.49-2.06A4.35,4.35,0,0,1,505.89,119.84Zm.14-1.48V117h7.91v1.34Zm3.86,5.72V122.6H510v1.48Zm4.05-8.62h-1.56a2.26,2.26,0,0,0-.7-1.71,2.43,2.43,0,0,0-1.77-.69v-1.48a4.11,4.11,0,0,1,2.06.51,3.75,3.75,0,0,1,1.44,1.38A3.85,3.85,0,0,1,513.94,115.46Zm-1.51,5,1.51.33a3.5,3.5,0,0,1-.67,1.66,4,4,0,0,1-1.42,1.17,4.11,4.11,0,0,1-1.89.44V122.6a2.75,2.75,0,0,0,1.65-.52A2.18,2.18,0,0,0,512.43,120.48Zm0-3.46v-1.56h1.56V117Z"/></g></g></svg>