<svg xmlns="http://www.w3.org/2000/svg" xmlns:xlink="http://www.w3.org/1999/xlink" viewBox="0 0 95.69 94.37"><defs><style>.cls-1{fill:url(#linear-gradient);}.cls-2{fill:url(#linear-gradient-2);}.cls-3{fill:url(#linear-gradient-3);}</style><linearGradient id="linear-gradient" y1="47.19" x2="95.69" y2="47.19" gradientUnits="userSpaceOnUse"><stop offset="0" stop-color="#005bbb"/><stop offset="1" stop-color="#1fa2ff"/></linearGradient><linearGradient id="linear-gradient-2" x1="65.37" y1="72.85" x2="38.71" y2="54.52" gradientUnits="userSpaceOnUse"><stop offset="0" stop-color="#fe0"/><stop offset="1" stop-color="#e6a66b"/></linearGradient><linearGradient id="linear-gradient-3" x1="34.98" y1="37.86" x2="72.15" y2="24.53" gradientUnits="userSpaceOnUse"><stop offset="0" stop-color="#fe0"/><stop offset="1" stop-color="#ffcf3f"/></linearGradient></defs><g id="Layer_2" data-name="Layer 2"><g id="Layer_5" data-name="Layer 5"><path class="cls-1" d="M87.21,10.2C74.76,0,54.93-.08,49.81.09L49.9,0c-30-.19-39.23,8.48-39.23,8.48C.67,20.66-.08,39.05.07,44.68L0,44.94c-.19,30,8.48,39.23,8.48,39.23C20.93,94.41,40.76,94.46,45.87,94.28l-.08.09c30,.2,39.22-8.48,39.22-8.48C95,73.72,95.79,55.26,95.63,49.63l.05-.2C95.88,19.47,87.21,10.2,87.21,10.2Z"/><path class="cls-2" d="M35.41,50.3l-6.48,4.25-7,4.63c12.5,21.33,44.32,14.46,44.32,14.46l-.42-19.92S52,62.8,35.41,50.3Z"/><path class="cls-3" d="M21.16,36.64l.09,20.5S52.5,32.39,65.83,41.47l.25-20.58C51.58,6.39,21.16,36.64,21.16,36.64Zm10.77-4.09S44.68,21.3,53.19,23l0,2.82s-7.05-1.61-21.28,9.51Zm0,4.16s12.58-11,21.3-9.71l.24,3S46,28.6,31.79,39.72Zm-.09,6.82,0-2.71s12.81-10.56,21.77-9.59l.18,3.09S46.07,32.41,31.83,43.53Z"/></g></g></svg>