<?xml version="1.0" encoding="UTF-8" standalone="no"?>
<!DOCTYPE svg PUBLIC "-//W3C//DTD SVG 1.1//EN" "http://www.w3.org/Graphics/SVG/1.1/DTD/svg11.dtd">
<svg width="100%" height="100%" viewBox="0 0 582 178" version="1.1" xmlns="http://www.w3.org/2000/svg" xmlns:xlink="http://www.w3.org/1999/xlink" xml:space="preserve" xmlns:serif="http://www.serif.com/" style="fill-rule:evenodd;clip-rule:evenodd;stroke-linejoin:round;stroke-miterlimit:2;">
    <g transform="matrix(1,0,0,1,-25.335,-28.426)">
        <g id="Layer-1" serif:id="Layer 1">
            <g transform="matrix(-1,0,0,1,632.183,-361.174)">
                <rect x="25.335" y="389.6" width="581.513" height="177.254" style="fill:rgb(241,242,242);"/>
            </g>
            <g transform="matrix(1,0,0,1,172.575,98.6306)">
                <path d="M0,17.771L4.743,18.685C4.323,22.228 3.095,24.99 1.057,26.97C-0.981,28.952 -3.619,29.941 -6.856,29.941L-6.856,25.428C-4.914,25.428 -3.342,24.751 -2.143,23.399C-0.943,22.047 -0.229,20.17 0,17.771M0,-0C-0.229,-2.399 -0.943,-4.275 -2.143,-5.628C-3.342,-6.98 -4.914,-7.657 -6.856,-7.657L-6.856,-12.17C-3.619,-12.17 -0.981,-11.18 1.057,-9.199C3.095,-7.218 4.323,-4.476 4.743,-0.971L0,-0ZM-18.113,19.199L-12.914,19.199C-12.914,21.18 -12.371,22.713 -11.285,23.799C-10.199,24.885 -8.705,25.428 -6.799,25.428L-6.799,29.941C-9.009,29.941 -10.971,29.484 -12.685,28.57C-14.399,27.656 -15.733,26.399 -16.685,24.799C-17.637,23.199 -18.113,21.333 -18.113,19.199M-18.113,-1.485L-12.913,-1.485L-12.913,19.257L-18.113,19.257L-18.113,-1.485ZM-18.113,-1.485C-18.113,-3.58 -17.637,-5.437 -16.685,-7.057C-15.733,-8.675 -14.399,-9.932 -12.685,-10.828C-10.971,-11.722 -9.009,-12.17 -6.799,-12.17L-6.799,-7.657C-8.705,-7.657 -10.199,-7.123 -11.285,-6.057C-12.371,-4.99 -12.914,-3.466 -12.914,-1.485L-18.113,-1.485Z" style="fill:rgb(255,28,63);fill-rule:nonzero;"/>
            </g>
            <g transform="matrix(1,0,0,1,0,-381.105)">
                <path d="M198.517,489.107L203.717,489.107L203.717,508.763L198.517,508.763L198.517,489.107ZM198.517,489.107C198.517,487.507 198.021,486.202 197.031,485.193C196.04,484.184 194.764,483.678 193.203,483.678L194.517,479.05C196.269,479.05 197.84,479.489 199.231,480.364C200.621,481.241 201.716,482.441 202.516,483.964C203.316,485.488 203.716,487.202 203.716,489.107L198.517,489.107ZM185.375,489.221C185.375,487.278 185.774,485.535 186.574,483.993C187.374,482.45 188.46,481.241 189.831,480.364C191.203,479.489 192.764,479.05 194.517,479.05L193.203,483.678C191.564,483.678 190.231,484.193 189.203,485.221C188.174,486.25 187.66,487.584 187.66,489.221L185.375,489.221ZM182.46,479.907L187.66,479.907L187.66,508.762L182.46,508.762L182.46,479.907ZM182.46,467.622L187.66,467.622L187.66,508.763L182.46,508.763L182.46,467.622Z" style="fill:rgb(255,28,63);fill-rule:nonzero;"/>
            </g>
            <g transform="matrix(1,0,0,1,225.372,111.03)">
                <path d="M0,4.4L0,-2.971L2.572,-2.971L2.572,4.286L0,4.4ZM0,-3.028L5.2,-3.028L5.2,16.628L0,16.628L0,-3.028ZM5.2,-2.914L0,-2.914C0,-4.59 -0.505,-5.961 -1.514,-7.028C-2.524,-8.094 -3.828,-8.628 -5.428,-8.628L-5.428,-13.085C-3.371,-13.085 -1.552,-12.646 0.029,-11.77C1.609,-10.894 2.866,-9.685 3.8,-8.142C4.733,-6.6 5.2,-4.857 5.2,-2.914M-5.828,3.2L-6.114,-0.8L2.686,-0.8L2.686,3.2L-5.828,3.2ZM-6.971,17.485L-6.571,13.2C-5.2,13.2 -4.028,12.857 -3.057,12.171C-2.085,11.485 -1.333,10.477 -0.8,9.143C-0.267,7.81 0,6.229 0,4.4L2.572,4.286C2.572,6.877 2.152,9.162 1.314,11.143C0.476,13.124 -0.657,14.676 -2.085,15.799C-3.514,16.922 -5.143,17.485 -6.971,17.485M-10.799,-3.6L-15.599,-4.571C-15.371,-6.285 -14.79,-7.771 -13.856,-9.028C-12.923,-10.285 -11.723,-11.275 -10.256,-11.999C-8.791,-12.722 -7.162,-13.085 -5.371,-13.085L-5.371,-8.628C-6.781,-8.628 -7.99,-8.218 -9,-7.399C-10.009,-6.58 -10.609,-5.314 -10.799,-3.6M-6.971,17.485C-8.685,17.485 -10.248,17.085 -11.656,16.285C-13.066,15.485 -14.19,14.391 -15.027,13C-15.866,11.609 -16.285,10.057 -16.285,8.343L-11.371,8.171C-11.371,9.619 -10.885,10.819 -9.914,11.771C-8.942,12.724 -7.828,13.2 -6.571,13.2L-6.971,17.485ZM-16.285,8.343C-16.285,6.553 -15.837,4.981 -14.942,3.629C-14.047,2.277 -12.837,1.2 -11.313,0.4C-9.791,-0.4 -8.057,-0.8 -6.114,-0.8L-5.828,3.2C-7.428,3.2 -8.752,3.667 -9.799,4.6C-10.848,5.534 -11.371,6.724 -11.371,8.171L-16.285,8.343Z" style="fill:rgb(255,28,63);fill-rule:nonzero;"/>
            </g>
            <g transform="matrix(1,0,0,1,249.884,121.258)">
                <path d="M0,-16.684C-0.572,-17.179 -1.171,-17.56 -1.8,-17.827C-2.429,-18.093 -3.048,-18.227 -3.657,-18.227L-2.514,-23.084C-1.639,-23.084 -0.82,-22.941 -0.057,-22.655C0.704,-22.37 1.466,-21.864 2.229,-21.141L0,-16.684ZM-10.571,-12.627C-10.571,-14.607 -10.219,-16.398 -9.514,-17.998C-8.81,-19.598 -7.848,-20.846 -6.628,-21.741C-5.41,-22.636 -4.039,-23.084 -2.514,-23.084L-3.657,-18.227C-4.991,-18.227 -6.085,-17.703 -6.943,-16.656C-7.8,-15.607 -8.229,-14.265 -8.229,-12.627L-10.571,-12.627ZM-13.428,-22.455L-8.228,-22.455L-8.228,6.4L-13.428,6.4L-13.428,-22.455Z" style="fill:rgb(255,28,63);fill-rule:nonzero;"/>
            </g>
            <g transform="matrix(1,0,0,1,0,-381.105)">
                <rect x="257.313" y="467.622" width="5.2" height="41.141" style="fill:rgb(255,28,63);"/>
            </g>
            <g transform="matrix(1,0,0,1,0,-368.763)">
                <path d="M284.338,476.879L289.538,476.879L289.538,479.85L284.338,479.85L284.338,476.879ZM284.567,487.85L289.424,488.821C289.195,490.46 288.604,491.926 287.652,493.221C286.7,494.517 285.5,495.526 284.053,496.25C282.604,496.973 280.986,497.335 279.196,497.335L279.196,492.821C280.567,492.821 281.757,492.412 282.767,491.593C283.776,490.774 284.376,489.526 284.567,487.85M278.91,492.821L279.196,492.821L279.196,497.335L278.91,497.335L278.91,492.821ZM289.538,476.879L284.338,476.879C284.338,475.203 283.833,473.832 282.824,472.765C281.814,471.699 280.51,471.165 278.91,471.165L278.91,466.708C280.967,466.708 282.786,467.147 284.367,468.022C285.947,468.899 287.205,470.108 288.138,471.651C289.071,473.193 289.538,474.936 289.538,476.879M270.053,479.85L289.538,479.85L289.538,483.564L270.053,483.564L270.053,479.85ZM268.396,486.193L273.596,486.193C273.596,488.288 274.072,489.917 275.024,491.078C275.977,492.241 277.291,492.821 278.967,492.821L278.967,497.335C276.948,497.335 275.148,496.85 273.567,495.878C271.986,494.907 270.729,493.584 269.796,491.907C268.862,490.231 268.396,488.327 268.396,486.193M268.396,477.793L273.596,477.793L273.596,486.192L268.396,486.192L268.396,477.793ZM268.396,477.851C268.396,475.679 268.862,473.765 269.796,472.108C270.729,470.451 271.986,469.137 273.567,468.165C275.148,467.194 276.948,466.708 278.967,466.708L278.967,471.165C277.291,471.165 275.977,471.746 275.024,472.908C274.072,474.07 273.596,475.717 273.596,477.851L268.396,477.851Z" style="fill:rgb(255,28,63);fill-rule:nonzero;"/>
            </g>
            <g transform="matrix(1,0,0,1,303.994,97.8879)">
                <path d="M0,30.627L0,26.113C1.409,26.113 2.571,25.761 3.485,25.056C4.4,24.352 4.857,23.447 4.857,22.342L9.942,22.342C9.942,23.942 9.514,25.37 8.657,26.627C7.799,27.884 6.628,28.866 5.143,29.57C3.657,30.274 1.943,30.627 0,30.627M5.143,9.485C4.952,7.771 4.352,6.514 3.343,5.714C2.333,4.914 1.143,4.514 -0.229,4.514L-0.229,0C1.562,0 3.18,0.363 4.628,1.086C6.076,1.81 7.275,2.81 8.228,4.085C9.18,5.362 9.771,6.838 10,8.514L5.143,9.485ZM3.828,19.971C3.143,19.342 2.257,18.771 1.171,18.256C0.085,17.742 -1.057,17.219 -2.257,16.685C-3.457,16.152 -4.6,15.533 -5.686,14.828C-6.771,14.124 -7.657,13.228 -8.342,12.142C-9.028,11.057 -9.371,9.733 -9.371,8.171L-4.343,8.171C-4.343,9.124 -4,9.914 -3.314,10.543C-2.628,11.171 -1.743,11.733 -0.657,12.228C0.429,12.724 1.58,13.248 2.8,13.799C4.019,14.352 5.161,14.99 6.228,15.713C7.294,16.438 8.18,17.323 8.885,18.371C9.59,19.419 9.942,20.742 9.942,22.342L4.857,22.342C4.857,21.39 4.514,20.599 3.828,19.971M-9.371,8.171C-9.371,6.609 -8.981,5.21 -8.2,3.971C-7.419,2.734 -6.324,1.763 -4.914,1.057C-3.505,0.353 -1.943,0 -0.229,0L-0.229,4.514C-1.41,4.514 -2.391,4.857 -3.171,5.543C-3.953,6.229 -4.343,7.105 -4.343,8.171L-9.371,8.171ZM-5.428,21.142C-5.238,22.818 -4.628,24.066 -3.6,24.885C-2.571,25.704 -1.372,26.113 0,26.113L0,30.627C-1.752,30.627 -3.371,30.265 -4.857,29.542C-6.343,28.818 -7.552,27.809 -8.485,26.513C-9.419,25.218 -10,23.752 -10.228,22.113L-5.428,21.142Z" style="fill:rgb(255,28,63);fill-rule:nonzero;"/>
            </g>
            <g transform="matrix(1,0,0,1,0,-380.248)">
                <path d="M337.134,467.622L342.334,467.622L342.334,507.906L337.134,507.906L337.134,467.622ZM327.877,467.622L351.59,467.622L351.59,472.136L327.877,472.136L327.877,467.622Z" style="fill:rgb(255,28,63);fill-rule:nonzero;"/>
            </g>
            <g transform="matrix(1,0,0,1,367.018,121.258)">
                <path d="M0,-16.684C-0.572,-17.179 -1.171,-17.56 -1.8,-17.827C-2.429,-18.093 -3.048,-18.227 -3.657,-18.227L-2.514,-23.084C-1.639,-23.084 -0.82,-22.941 -0.057,-22.655C0.704,-22.37 1.466,-21.864 2.229,-21.141L0,-16.684ZM-10.571,-12.627C-10.571,-14.607 -10.219,-16.398 -9.514,-17.998C-8.81,-19.598 -7.848,-20.846 -6.628,-21.741C-5.41,-22.636 -4.039,-23.084 -2.514,-23.084L-3.657,-18.227C-4.991,-18.227 -6.085,-17.703 -6.943,-16.656C-7.8,-15.607 -8.229,-14.265 -8.229,-12.627L-10.571,-12.627ZM-13.428,-22.455L-8.228,-22.455L-8.228,6.4L-13.428,6.4L-13.428,-22.455Z" style="fill:rgb(255,28,63);fill-rule:nonzero;"/>
            </g>
            <g transform="matrix(1,0,0,1,387.702,111.03)">
                <path d="M0,4.4L0,-2.971L2.572,-2.971L2.572,4.286L0,4.4ZM0,-3.028L5.2,-3.028L5.2,16.628L0,16.628L0,-3.028ZM5.2,-2.914L0,-2.914C0,-4.59 -0.505,-5.961 -1.514,-7.028C-2.524,-8.094 -3.828,-8.628 -5.428,-8.628L-5.428,-13.085C-3.371,-13.085 -1.552,-12.646 0.029,-11.77C1.609,-10.894 2.866,-9.685 3.8,-8.142C4.733,-6.6 5.2,-4.857 5.2,-2.914M-5.828,3.2L-6.114,-0.8L2.686,-0.8L2.686,3.2L-5.828,3.2ZM-6.971,17.485L-6.571,13.2C-5.2,13.2 -4.028,12.857 -3.057,12.171C-2.085,11.485 -1.333,10.477 -0.8,9.143C-0.267,7.81 0,6.229 0,4.4L2.572,4.286C2.572,6.877 2.152,9.162 1.314,11.143C0.476,13.124 -0.657,14.676 -2.085,15.799C-3.514,16.922 -5.143,17.485 -6.971,17.485M-10.799,-3.6L-15.599,-4.571C-15.371,-6.285 -14.79,-7.771 -13.856,-9.028C-12.923,-10.285 -11.723,-11.275 -10.256,-11.999C-8.791,-12.722 -7.162,-13.085 -5.371,-13.085L-5.371,-8.628C-6.781,-8.628 -7.99,-8.218 -9,-7.399C-10.009,-6.58 -10.609,-5.314 -10.799,-3.6M-6.971,17.485C-8.685,17.485 -10.248,17.085 -11.656,16.285C-13.066,15.485 -14.19,14.391 -15.027,13C-15.866,11.609 -16.285,10.057 -16.285,8.343L-11.371,8.171C-11.371,9.619 -10.885,10.819 -9.914,11.771C-8.942,12.724 -7.828,13.2 -6.571,13.2L-6.971,17.485ZM-16.285,8.343C-16.285,6.553 -15.837,4.981 -14.942,3.629C-14.047,2.277 -12.837,1.2 -11.313,0.4C-9.791,-0.4 -8.057,-0.8 -6.114,-0.8L-5.828,3.2C-7.428,3.2 -8.752,3.667 -9.799,4.6C-10.848,5.534 -11.371,6.724 -11.371,8.171L-16.285,8.343Z" style="fill:rgb(255,28,63);fill-rule:nonzero;"/>
            </g>
            <g transform="matrix(1,0,0,1,0,-369.677)">
                <path d="M414.843,477.679L420.043,477.679L420.043,497.335L414.843,497.335L414.843,477.679ZM414.843,477.679C414.843,476.079 414.348,474.774 413.357,473.765C412.367,472.756 411.091,472.25 409.529,472.25L410.843,467.622C412.595,467.622 414.167,468.061 415.558,468.936C416.947,469.813 418.043,471.013 418.843,472.536C419.643,474.06 420.043,475.774 420.043,477.679L414.843,477.679ZM401.701,477.793C401.701,475.85 402.101,474.107 402.901,472.565C403.701,471.022 404.787,469.813 406.158,468.936C407.529,468.061 409.091,467.622 410.843,467.622L409.529,472.25C407.891,472.25 406.558,472.765 405.529,473.793C404.501,474.822 403.986,476.156 403.986,477.793L401.701,477.793ZM398.787,468.479L403.987,468.479L403.987,497.334L398.787,497.334L398.787,468.479Z" style="fill:rgb(255,28,63);fill-rule:nonzero;"/>
            </g>
            <g transform="matrix(1,0,0,1,435.069,97.8879)">
                <path d="M0,30.627L0,26.113C1.409,26.113 2.571,25.761 3.486,25.056C4.4,24.352 4.857,23.447 4.857,22.342L9.942,22.342C9.942,23.942 9.515,25.37 8.657,26.627C7.8,27.884 6.629,28.866 5.143,29.57C3.657,30.274 1.943,30.627 0,30.627M5.143,9.485C4.952,7.771 4.352,6.514 3.343,5.714C2.333,4.914 1.144,4.514 -0.229,4.514L-0.229,0C1.562,0 3.181,0.363 4.629,1.086C6.076,1.81 7.276,2.81 8.229,4.085C9.181,5.362 9.771,6.838 10,8.514L5.143,9.485ZM3.829,19.971C3.144,19.342 2.258,18.771 1.172,18.256C0.086,17.742 -1.057,17.219 -2.257,16.685C-3.457,16.152 -4.6,15.533 -5.685,14.828C-6.771,14.124 -7.656,13.228 -8.342,12.142C-9.027,11.057 -9.37,9.733 -9.37,8.171L-4.342,8.171C-4.342,9.124 -3.999,9.914 -3.313,10.543C-2.628,11.171 -1.742,11.733 -0.656,12.228C0.429,12.724 1.581,13.248 2.8,13.799C4.019,14.352 5.162,14.99 6.229,15.713C7.295,16.438 8.181,17.323 8.886,18.371C9.59,19.419 9.942,20.742 9.942,22.342L4.857,22.342C4.857,21.39 4.515,20.599 3.829,19.971M-9.37,8.171C-9.37,6.609 -8.98,5.21 -8.199,3.971C-7.419,2.734 -6.323,1.763 -4.914,1.057C-3.505,0.353 -1.942,0 -0.229,0L-0.229,4.514C-1.409,4.514 -2.391,4.857 -3.171,5.543C-3.952,6.229 -4.342,7.105 -4.342,8.171L-9.37,8.171ZM-5.428,21.142C-5.237,22.818 -4.628,24.066 -3.6,24.885C-2.571,25.704 -1.371,26.113 0,26.113L0,30.627C-1.752,30.627 -3.371,30.265 -4.856,29.542C-6.342,28.818 -7.552,27.809 -8.485,26.513C-9.419,25.218 -9.999,23.752 -10.228,22.113L-5.428,21.142Z" style="fill:rgb(255,28,63);fill-rule:nonzero;"/>
            </g>
            <g transform="matrix(1,0,0,1,0,-381.105)">
                <rect x="450.955" y="467.622" width="5.199" height="41.141" style="fill:rgb(255,28,63);"/>
            </g>
            <g transform="matrix(1,0,0,1,478.895,111.03)">
                <path d="M0,4.4L0,-2.971L2.571,-2.971L2.571,4.286L0,4.4ZM0,-3.028L5.199,-3.028L5.199,16.628L0,16.628L0,-3.028ZM5.199,-2.914L0,-2.914C0,-4.59 -0.506,-5.961 -1.515,-7.028C-2.524,-8.094 -3.829,-8.628 -5.429,-8.628L-5.429,-13.085C-3.371,-13.085 -1.553,-12.646 0.028,-11.77C1.608,-10.894 2.865,-9.685 3.8,-8.142C4.732,-6.6 5.199,-4.857 5.199,-2.914M-5.828,3.2L-6.114,-0.8L2.686,-0.8L2.686,3.2L-5.828,3.2ZM-6.972,17.485L-6.571,13.2C-5.2,13.2 -4.028,12.857 -3.058,12.171C-2.086,11.485 -1.334,10.477 -0.8,9.143C-0.268,7.81 0,6.229 0,4.4L2.571,4.286C2.571,6.877 2.151,9.162 1.314,11.143C0.476,13.124 -0.657,14.676 -2.086,15.799C-3.515,16.922 -5.143,17.485 -6.972,17.485M-10.8,-3.6L-15.6,-4.571C-15.371,-6.285 -14.791,-7.771 -13.856,-9.028C-12.924,-10.285 -11.724,-11.275 -10.257,-11.999C-8.791,-12.722 -7.162,-13.085 -5.371,-13.085L-5.371,-8.628C-6.781,-8.628 -7.991,-8.218 -9,-7.399C-10.01,-6.58 -10.609,-5.314 -10.8,-3.6M-6.972,17.485C-8.686,17.485 -10.248,17.085 -11.657,16.285C-13.066,15.485 -14.19,14.391 -15.028,13C-15.866,11.609 -16.285,10.057 -16.285,8.343L-11.371,8.171C-11.371,9.619 -10.886,10.819 -9.914,11.771C-8.942,12.724 -7.828,13.2 -6.571,13.2L-6.972,17.485ZM-16.285,8.343C-16.285,6.553 -15.838,4.981 -14.942,3.629C-14.048,2.277 -12.838,1.2 -11.314,0.4C-9.791,-0.4 -8.057,-0.8 -6.114,-0.8L-5.828,3.2C-7.429,3.2 -8.753,3.667 -9.8,4.6C-10.848,5.534 -11.371,6.724 -11.371,8.171L-16.285,8.343Z" style="fill:rgb(255,28,63);fill-rule:nonzero;"/>
            </g>
            <g transform="matrix(1,0,0,1,503.579,92.8025)">
                <path d="M0,30.227L2.058,33.941C1.295,34.513 0.467,34.95 -0.428,35.255C-1.323,35.56 -2.229,35.712 -3.143,35.712L-2.686,31.199C-2.19,31.199 -1.724,31.113 -1.285,30.941C-0.848,30.77 -0.419,30.532 0,30.227M-11.713,26.056L-6.514,26.056C-6.514,27.161 -6.361,28.094 -6.057,28.856C-5.752,29.618 -5.313,30.199 -4.742,30.599C-4.171,30.998 -3.485,31.199 -2.686,31.199L-3.143,35.712C-5.81,35.712 -7.904,34.864 -9.428,33.17C-10.952,31.475 -11.713,29.104 -11.713,26.056M-11.713,26.113L-11.713,-5.485L-6.514,-5.428L-6.514,26.113L-11.713,26.113ZM-15.027,6L0.687,6L0.687,10.285L-15.027,10.285L-15.027,6Z" style="fill:rgb(255,28,63);fill-rule:nonzero;"/>
            </g>
            <g transform="matrix(1,0,0,1,0,-368.82)">
                <path d="M523.692,477.85L528.891,477.85L528.891,486.249L523.692,486.249L523.692,477.85ZM528.892,486.193C528.892,488.327 528.425,490.231 527.492,491.907C526.558,493.583 525.301,494.907 523.721,495.878C522.14,496.85 520.34,497.335 518.321,497.335L518.321,492.821C520.035,492.821 521.358,492.241 522.292,491.078C523.225,489.916 523.692,488.288 523.692,486.193L528.892,486.193ZM528.892,477.908L523.692,477.908C523.692,475.774 523.225,474.136 522.292,472.994C521.358,471.85 520.035,471.279 518.321,471.279L518.321,466.765C520.34,466.765 522.14,467.251 523.721,468.222C525.301,469.194 526.558,470.517 527.492,472.193C528.425,473.87 528.892,475.774 528.892,477.908M518.092,492.821L518.436,492.821L518.436,497.335L518.092,497.335L518.092,492.821ZM518.092,466.765L518.436,466.765L518.436,471.279L518.092,471.279L518.092,466.765ZM507.636,486.193L512.835,486.193C512.835,488.288 513.312,489.916 514.264,491.078C515.216,492.241 516.53,492.821 518.206,492.821L518.206,497.335C516.187,497.335 514.387,496.85 512.807,495.878C511.226,494.907 509.969,493.583 509.035,491.907C508.102,490.231 507.636,488.327 507.636,486.193M507.636,477.85L512.835,477.85L512.835,486.249L507.636,486.249L507.636,477.85ZM507.636,477.908C507.636,475.774 508.102,473.87 509.035,472.193C509.969,470.517 511.226,469.194 512.807,468.222C514.387,467.251 516.187,466.765 518.206,466.765L518.206,471.279C516.53,471.279 515.216,471.85 514.264,472.994C513.312,474.136 512.835,475.774 512.835,477.908L507.636,477.908Z" style="fill:rgb(255,28,63);fill-rule:nonzero;"/>
            </g>
            <g transform="matrix(1,0,0,1,547.634,121.258)">
                <path d="M0,-16.684C-0.571,-17.179 -1.172,-17.56 -1.8,-17.827C-2.429,-18.093 -3.048,-18.227 -3.657,-18.227L-2.515,-23.084C-1.639,-23.084 -0.819,-22.941 -0.058,-22.655C0.704,-22.37 1.466,-21.864 2.229,-21.141L0,-16.684ZM-10.571,-12.627C-10.571,-14.607 -10.22,-16.398 -9.514,-17.998C-8.81,-19.598 -7.848,-20.846 -6.628,-21.741C-5.41,-22.636 -4.038,-23.084 -2.515,-23.084L-3.657,-18.227C-4.991,-18.227 -6.086,-17.703 -6.942,-16.656C-7.8,-15.607 -8.229,-14.265 -8.229,-12.627L-10.571,-12.627ZM-13.428,-22.455L-8.229,-22.455L-8.229,6.4L-13.428,6.4L-13.428,-22.455Z" style="fill:rgb(255,28,63);fill-rule:nonzero;"/>
            </g>
            <g transform="matrix(3.74643,30.1219,30.1219,-3.74643,113.466,107.274)">
                <path d="M0.387,-0.954C1.227,-0.593 1.118,0.59 1.118,0.59L0.387,0.681C0.387,0.681 0.664,0.212 0.123,-0.419C0.223,-0.673 0.387,-0.954 0.387,-0.954Z" style="fill:url(#_Linear1);fill-rule:nonzero;"/>
            </g>
            <g transform="matrix(40.5346,-17.0314,-17.0314,-40.5346,88.2277,100.222)">
                <path d="M-0.013,0.135L-0.235,-0.395C-0.235,-0.395 0.745,-0.121 0.969,-0.467L1.172,0.018C1.132,0.117 1.058,0.18 0.967,0.218C0.612,0.367 -0.013,0.135 -0.013,0.135ZM0.281,0.075C0.281,0.075 0.695,0.213 0.878,0.088L0.85,0.021C0.85,0.021 0.698,0.13 0.253,0.009L0.281,0.075ZM0.24,-0.023C0.24,-0.023 0.647,0.112 0.839,-0.006L0.81,-0.076C0.81,-0.076 0.655,0.028 0.21,-0.093L0.24,-0.023ZM0.2,-0.119C0.2,-0.119 0.596,0.006 0.797,-0.105L0.767,-0.178C0.767,-0.178 0.618,-0.062 0.173,-0.183L0.2,-0.119Z" style="fill:url(#_Linear2);fill-rule:nonzero;"/>
            </g>
        </g>
    </g>
    <defs>
        <linearGradient id="_Linear1" x1="0" y1="0" x2="1" y2="0" gradientUnits="userSpaceOnUse" gradientTransform="matrix(-0.395209,-0.918591,-0.918591,0.395209,0.846893,0.557585)"><stop offset="0" style="stop-color:rgb(210,45,64);stop-opacity:1"/><stop offset="1" style="stop-color:rgb(148,28,63);stop-opacity:1"/></linearGradient>
        <linearGradient id="_Linear2" x1="0" y1="0" x2="1" y2="0" gradientUnits="userSpaceOnUse" gradientTransform="matrix(1,0,0,-1,0,-0.0992741)"><stop offset="0" style="stop-color:rgb(210,45,64);stop-opacity:1"/><stop offset="1" style="stop-color:rgb(255,28,63);stop-opacity:1"/></linearGradient>
    </defs>
</svg>
