<?xml version="1.0" encoding="UTF-8" standalone="no"?>
<!DOCTYPE svg PUBLIC "-//W3C//DTD SVG 1.1//EN" "http://www.w3.org/Graphics/SVG/1.1/DTD/svg11.dtd">
<svg width="100%" height="100%" viewBox="0 0 335 119" version="1.1" xmlns="http://www.w3.org/2000/svg" xmlns:xlink="http://www.w3.org/1999/xlink" xml:space="preserve" xmlns:serif="http://www.serif.com/" style="fill-rule:evenodd;clip-rule:evenodd;stroke-linejoin:round;stroke-miterlimit:2;">
    <g transform="matrix(1,0,0,1,-88.072,-348.852)">
        <g transform="matrix(1,0,0,1,220.131,370.282)">
            <path d="M0,17.757L4.744,18.669C4.327,22.212 3.102,24.974 1.065,26.956C-0.971,28.941 -3.609,29.933 -6.846,29.937L-6.851,25.421C-4.908,25.419 -3.337,24.741 -2.138,23.388C-0.939,22.036 -0.226,20.157 0,17.757M-0.016,-0.014C-0.247,-2.415 -0.962,-4.29 -2.164,-5.641C-3.365,-6.991 -4.938,-7.667 -6.88,-7.665L-6.884,-12.179C-3.647,-12.182 -1.007,-11.194 1.033,-9.216C3.072,-7.235 4.303,-4.495 4.726,-0.989L-0.016,-0.014ZM-18.113,19.202L-12.914,19.198C-12.912,21.179 -12.368,22.712 -11.281,23.798C-10.194,24.882 -8.699,25.423 -6.793,25.421L-6.789,29.937C-8.999,29.939 -10.961,29.482 -12.676,28.57C-14.392,27.657 -15.727,26.402 -16.68,24.802C-17.634,23.202 -18.111,21.337 -18.113,19.202M-18.113,19.261L-18.131,-1.483L-12.932,-1.487L-12.914,19.255L-18.113,19.261ZM-18.131,-1.483C-18.133,-3.577 -17.66,-5.434 -16.709,-7.056C-15.758,-8.675 -14.425,-9.934 -12.712,-10.831C-10.998,-11.727 -9.037,-12.177 -6.827,-12.179L-6.823,-7.665C-8.729,-7.663 -10.223,-7.128 -11.308,-6.061C-12.393,-4.993 -12.934,-3.468 -12.932,-1.487L-18.131,-1.483Z" style="fill:rgb(255,28,63);fill-rule:nonzero;"/>
        </g>
        <g transform="matrix(1,0,0,1,246.084,358.156)">
            <path d="M0,41.117L-0.018,21.461L5.183,21.457L5.2,41.113L0,41.117ZM-0.018,21.461C-0.019,19.859 -0.516,18.556 -1.507,17.547C-2.499,16.539 -3.775,16.035 -5.337,16.037L-4.027,11.406C-2.275,11.404 -0.703,11.842 0.689,12.717C2.08,13.592 3.176,14.791 3.978,16.314C4.779,17.838 5.181,19.551 5.183,21.457L-0.018,21.461ZM-13.161,21.586C-13.163,19.642 -12.764,17.9 -11.966,16.355C-11.167,14.812 -10.083,13.603 -8.711,12.724C-7.341,11.847 -5.78,11.408 -4.027,11.406L-5.337,16.037C-6.976,16.039 -8.308,16.553 -9.335,17.582C-10.364,18.613 -10.876,19.947 -10.875,21.584L-13.161,21.586ZM-16.058,41.133L-16.083,12.273L-10.883,12.269L-10.857,41.127L-16.058,41.133ZM-16.058,41.133L-16.095,-0.012L-10.895,-0.016L-10.857,41.127L-16.058,41.133Z" style="fill:rgb(255,28,63);fill-rule:nonzero;"/>
        </g>
        <g transform="matrix(1,0,0,1,272.93,382.633)">
            <path d="M0,4.388L-0.006,-2.983L2.565,-2.987L2.571,4.271L0,4.388ZM0.011,16.617L-0.006,-3.04L5.193,-3.046L5.211,16.613L0.011,16.617ZM5.193,-2.93L-0.006,-2.926C-0.008,-4.602 -0.515,-5.973 -1.525,-7.04C-2.536,-8.104 -3.841,-8.637 -5.441,-8.635L-5.445,-13.092C-3.387,-13.094 -1.568,-12.659 0.014,-11.784C1.595,-10.909 2.853,-9.702 3.789,-8.159C4.723,-6.618 5.191,-4.874 5.193,-2.93M-5.83,3.193L-6.119,-0.807L2.681,-0.815L2.685,3.185L-5.83,3.193ZM-6.959,17.48L-6.563,13.195C-5.192,13.193 -4.021,12.849 -3.05,12.161C-2.08,11.476 -1.328,10.466 -0.796,9.13C-0.264,7.798 0.002,6.216 0,4.388L2.571,4.271C2.574,6.863 2.156,9.15 1.32,11.128C0.483,13.111 -0.648,14.665 -2.076,15.79C-3.503,16.915 -5.131,17.478 -6.959,17.48M-10.808,-3.602L-15.608,-4.569C-15.381,-6.284 -14.802,-7.77 -13.87,-9.03C-12.938,-10.286 -11.738,-11.278 -10.272,-12.003C-8.807,-12.727 -7.179,-13.092 -5.387,-13.092L-5.383,-8.635C-6.793,-8.635 -8.003,-8.223 -9.011,-7.405C-10.02,-6.585 -10.619,-5.317 -10.808,-3.602M-6.959,17.48C-8.674,17.482 -10.237,17.083 -11.647,16.284C-13.057,15.486 -14.183,14.392 -15.021,13.001C-15.861,11.613 -16.281,10.06 -16.283,8.345L-11.369,8.169C-11.367,9.618 -10.88,10.818 -9.908,11.769C-8.936,12.72 -7.821,13.195 -6.563,13.195L-6.959,17.48ZM-16.283,8.345C-16.285,6.556 -15.838,4.984 -14.944,3.63C-14.05,2.277 -12.841,1.199 -11.318,0.398C-9.795,-0.403 -8.062,-0.805 -6.119,-0.807L-5.83,3.193C-7.43,3.195 -8.753,3.663 -9.8,4.597C-10.847,5.533 -11.37,6.722 -11.369,8.169L-16.283,8.345Z" style="fill:rgb(255,28,63);fill-rule:nonzero;"/>
        </g>
        <g transform="matrix(1,0,0,1,297.434,392.842)">
            <path d="M0,-16.7C-0.572,-17.194 -1.172,-17.575 -1.801,-17.843C-2.429,-18.108 -3.049,-18.241 -3.658,-18.241L-2.52,-23.098C-1.644,-23.098 -0.825,-22.958 -0.063,-22.673C0.7,-22.388 1.462,-21.882 2.225,-21.161L0,-16.7ZM-10.567,-12.634C-10.569,-14.614 -10.219,-16.407 -9.515,-18.007C-8.813,-19.608 -7.852,-20.856 -6.633,-21.753C-5.415,-22.647 -4.043,-23.096 -2.52,-23.098L-3.658,-18.241C-4.992,-18.239 -6.086,-17.714 -6.943,-16.667C-7.799,-15.618 -8.226,-14.274 -8.225,-12.636L-10.567,-12.634ZM-13.408,6.398L-13.434,-22.462L-8.233,-22.466L-8.208,6.394L-13.408,6.398Z" style="fill:rgb(255,28,63);fill-rule:nonzero;"/>
        </g>
        <g transform="matrix(-0.000899302,-1,-1,0.000899302,328.041,381.209)">
            <rect x="-17.99" y="17.974" width="41.143" height="5.2" style="fill:rgb(255,28,63);"/>
        </g>
        <g transform="matrix(1,0,0,1,331.897,386.976)">
            <path d="M0,-4.351L-0.002,-7.322L5.198,-7.328L5.2,-4.357L0,-4.351ZM0.236,3.649L5.094,4.616C4.867,6.254 4.277,7.721 3.327,9.018C2.375,10.315 1.176,11.325 -0.271,12.049C-1.718,12.774 -3.336,13.137 -5.127,13.139L-5.131,8.626C-3.76,8.624 -2.57,8.215 -1.561,7.393C-0.552,6.575 0.046,5.327 0.236,3.649M-5.413,13.139L-5.417,8.626L-5.131,8.626L-5.127,13.139L-5.413,13.139ZM5.198,-7.328L-0.002,-7.322C-0.004,-8.999 -0.511,-10.369 -1.521,-11.435C-2.532,-12.499 -3.836,-13.033 -5.437,-13.033L-5.44,-17.49C-3.383,-17.492 -1.564,-17.054 0.019,-16.179C1.599,-15.304 2.857,-14.097 3.793,-12.554C4.728,-11.013 5.196,-9.271 5.198,-7.328M-14.283,-0.624L-14.286,-4.339L5.2,-4.357L5.204,-0.642L-14.283,-0.624ZM-15.938,2.006L-10.737,2.003C-10.735,4.098 -10.258,5.725 -9.304,6.887C-8.352,8.047 -7.037,8.628 -5.36,8.626L-5.355,13.139C-7.375,13.141 -9.176,12.659 -10.757,11.688C-12.339,10.717 -13.598,9.395 -14.532,7.719C-15.467,6.045 -15.936,4.141 -15.938,2.006M-15.938,2.006L-15.945,-6.394L-10.745,-6.398L-10.737,2.003L-15.938,2.006ZM-15.945,-6.337C-15.947,-8.507 -15.482,-10.423 -14.55,-12.081C-13.619,-13.738 -12.362,-15.054 -10.782,-16.027C-9.203,-16.999 -7.403,-17.488 -5.383,-17.49L-5.379,-13.033C-7.056,-13.031 -8.37,-12.449 -9.32,-11.285C-10.272,-10.122 -10.747,-8.474 -10.745,-6.341L-15.945,-6.337Z" style="fill:rgb(255,28,63);fill-rule:nonzero;"/>
        </g>
        <g transform="matrix(1,0,0,1,351.569,369.408)">
            <path d="M0,30.629L-0.004,26.113C1.404,26.113 2.567,25.76 3.48,25.053C4.394,24.348 4.851,23.443 4.85,22.338L9.935,22.334C9.937,23.934 9.51,25.361 8.653,26.621C7.797,27.879 6.627,28.861 5.142,29.566C3.657,30.274 1.943,30.627 0,30.629M5.124,9.481C4.931,7.766 4.33,6.51 3.32,5.711C2.31,4.912 1.119,4.512 -0.252,4.514L-0.256,-0.002C1.534,-0.002 3.153,0.358 4.602,1.08C6.05,1.805 7.25,2.803 8.205,4.078C9.158,5.354 9.75,6.828 9.98,8.504L5.124,9.481ZM3.819,19.969C3.133,19.34 2.247,18.77 1.16,18.256C0.074,17.742 -1.069,17.221 -2.27,16.688C-3.47,16.154 -4.613,15.537 -5.7,14.832C-6.786,14.129 -7.673,13.234 -8.36,12.15C-9.046,11.065 -9.39,9.742 -9.392,8.18C-8.745,8.178 -8.163,8.178 -7.649,8.178C-7.135,8.178 -6.63,8.176 -6.135,8.176C-5.64,8.176 -5.049,8.176 -4.363,8.174C-4.362,9.127 -4.019,9.918 -3.332,10.545C-2.646,11.174 -1.76,11.734 -0.674,12.229C0.413,12.723 1.564,13.246 2.785,13.797C4.004,14.348 5.147,14.984 6.215,15.707C7.282,16.432 8.168,17.316 8.875,18.363C9.58,19.41 9.934,20.733 9.935,22.334C9.25,22.334 8.649,22.334 8.135,22.336L6.621,22.336C6.125,22.338 5.535,22.338 4.85,22.338C4.849,21.387 4.505,20.596 3.819,19.969M-9.392,8.18C-9.393,6.617 -9.004,5.217 -8.224,3.979C-7.445,2.74 -6.35,1.768 -4.941,1.061C-3.532,0.354 -1.971,0 -0.256,-0.002L-0.252,4.514C-1.434,4.514 -2.415,4.858 -3.194,5.545C-3.975,6.231 -4.364,7.108 -4.363,8.174L-9.392,8.18ZM-5.437,21.147C-5.246,22.824 -4.635,24.07 -3.605,24.889C-2.577,25.707 -1.376,26.115 -0.004,26.113L0,30.629C-1.753,30.631 -3.372,30.27 -4.858,29.547C-6.345,28.824 -7.556,27.816 -8.489,26.522C-9.424,25.229 -10.006,23.762 -10.236,22.123L-5.437,21.147Z" style="fill:rgb(255,28,63);fill-rule:nonzero;"/>
        </g>
        <g transform="matrix(1,0,0,1,209.628,424.513)">
            <path d="M0,40.299L-0.037,0.012L5.164,0.008L5.2,40.295L0,40.299ZM-9.289,4.535L-9.293,0.022L14.421,0L14.425,4.514L-9.289,4.535Z" style="fill:rgb(255,28,63);fill-rule:nonzero;"/>
        </g>
        <g transform="matrix(1,0,0,1,239.493,458.401)">
            <path d="M0,-16.702C-0.572,-17.196 -1.172,-17.575 -1.801,-17.843C-2.429,-18.108 -3.05,-18.241 -3.659,-18.241L-2.52,-23.098C-1.644,-23.1 -0.825,-22.958 -0.063,-22.673C0.7,-22.388 1.462,-21.884 2.225,-21.161L0,-16.702ZM-10.568,-12.636C-10.57,-14.616 -10.219,-16.407 -9.515,-18.007C-8.813,-19.608 -7.852,-20.856 -6.633,-21.753C-5.415,-22.649 -4.044,-23.098 -2.52,-23.098L-3.659,-18.241C-4.993,-18.239 -6.087,-17.716 -6.943,-16.667C-7.799,-15.618 -8.226,-14.274 -8.225,-12.638L-10.568,-12.636ZM-13.408,6.398L-13.434,-22.462L-8.233,-22.466L-8.208,6.392L-13.408,6.398Z" style="fill:rgb(255,28,63);fill-rule:nonzero;"/>
        </g>
        <g transform="matrix(1,0,0,1,260.188,448.151)">
            <path d="M0,4.388L-0.006,-2.985L2.565,-2.987L2.572,4.271L0,4.388ZM0.011,16.617L-0.007,-3.042L5.193,-3.046L5.211,16.613L0.011,16.617ZM5.194,-2.93L-0.006,-2.926C-0.008,-4.604 -0.514,-5.973 -1.524,-7.04C-2.535,-8.104 -3.84,-8.637 -5.44,-8.637L-5.444,-13.094C-3.387,-13.094 -1.567,-12.659 0.014,-11.784C1.596,-10.909 2.854,-9.702 3.789,-8.159C4.724,-6.618 5.192,-4.874 5.194,-2.93M-5.83,3.193L-6.119,-0.807L2.682,-0.815L2.685,3.185L-5.83,3.193ZM-6.959,17.48L-6.563,13.193C-5.192,13.193 -4.021,12.849 -3.05,12.161C-2.079,11.476 -1.328,10.466 -0.795,9.13C-0.264,7.798 0.002,6.216 0,4.388L2.572,4.271C2.574,6.863 2.156,9.148 1.321,11.128C0.484,13.111 -0.647,14.665 -2.075,15.79C-3.503,16.915 -5.131,17.478 -6.959,17.48M-10.807,-3.604L-15.607,-4.569C-15.381,-6.284 -14.801,-7.77 -13.869,-9.03C-12.937,-10.288 -11.738,-11.278 -10.271,-12.003C-8.806,-12.727 -7.178,-13.092 -5.387,-13.094L-5.383,-8.637C-6.793,-8.635 -8.002,-8.223 -9.01,-7.405C-10.019,-6.585 -10.618,-5.317 -10.807,-3.604M-6.959,17.48C-8.674,17.482 -10.236,17.083 -11.646,16.284C-13.056,15.486 -14.182,14.392 -15.021,13.001C-15.86,11.613 -16.28,10.06 -16.282,8.345L-11.368,8.169C-11.366,9.618 -10.879,10.816 -9.907,11.769C-8.935,12.72 -7.821,13.195 -6.563,13.193L-6.959,17.48ZM-16.282,8.345C-16.284,6.554 -15.837,4.984 -14.943,3.63C-14.05,2.277 -12.841,1.199 -11.317,0.398C-9.795,-0.405 -8.062,-0.805 -6.119,-0.807L-5.83,3.193C-7.43,3.195 -8.753,3.661 -9.799,4.595C-10.847,5.531 -11.369,6.722 -11.368,8.169L-16.282,8.345Z" style="fill:rgb(255,28,63);fill-rule:nonzero;"/>
        </g>
        <g transform="matrix(1,0,0,1,287.343,435.045)">
            <path d="M0,29.697L-0.018,10.041L5.182,10.037L5.2,29.693L0,29.697ZM-0.018,10.041C-0.019,8.439 -0.516,7.136 -1.507,6.127C-2.5,5.119 -3.776,4.615 -5.337,4.617L-4.027,-0.014C-2.275,-0.016 -0.703,0.422 0.688,1.297C2.08,2.172 3.176,3.371 3.978,4.894C4.779,6.418 5.181,8.131 5.182,10.037L-0.018,10.041ZM-13.161,10.168C-13.163,8.224 -12.764,6.48 -11.966,4.935C-11.167,3.392 -10.083,2.183 -8.712,1.304C-7.341,0.427 -5.78,-0.012 -4.027,-0.014L-5.337,4.617C-6.976,4.619 -8.309,5.133 -9.336,6.162C-10.364,7.193 -10.876,8.527 -10.875,10.164L-13.161,10.168ZM-16.058,29.713L-16.083,0.853L-10.883,0.849L-10.857,29.707L-16.058,29.713Z" style="fill:rgb(255,28,63);fill-rule:nonzero;"/>
        </g>
        <g transform="matrix(1,0,0,1,307.571,434.953)">
            <path d="M0,30.629L-0.004,26.115C1.405,26.113 2.567,25.76 3.481,25.055C4.395,24.35 4.851,23.443 4.85,22.338L9.936,22.334C9.937,23.934 9.51,25.363 8.654,26.621C7.798,27.879 6.627,28.861 5.142,29.566C3.657,30.274 1.943,30.627 0,30.629M5.124,9.481C4.931,7.766 4.331,6.51 3.32,5.711C2.31,4.912 1.119,4.514 -0.252,4.514L-0.256,0C1.534,-0.002 3.153,0.359 4.602,1.08C6.05,1.805 7.251,2.803 8.205,4.078C9.158,5.354 9.75,6.83 9.98,8.506L5.124,9.481ZM3.819,19.969C3.133,19.34 2.247,18.77 1.16,18.256C0.074,17.742 -1.069,17.221 -2.27,16.688C-3.47,16.156 -4.614,15.537 -5.7,14.834C-6.786,14.131 -7.672,13.236 -8.359,12.15C-9.046,11.065 -9.39,9.742 -9.391,8.18C-8.744,8.18 -8.163,8.178 -7.648,8.178C-7.135,8.178 -6.63,8.178 -6.135,8.176L-4.363,8.176C-4.362,9.129 -4.019,9.918 -3.333,10.545C-2.646,11.174 -1.76,11.734 -0.674,12.229C0.413,12.723 1.564,13.246 2.785,13.797C4.004,14.35 5.147,14.986 6.215,15.709C7.282,16.432 8.169,17.316 8.875,18.363C9.581,19.41 9.934,20.734 9.936,22.334C9.25,22.334 8.65,22.336 8.136,22.336C7.622,22.336 7.116,22.336 6.621,22.338L4.85,22.338C4.849,21.387 4.505,20.596 3.819,19.969M-9.391,8.18C-9.393,6.617 -9.004,5.217 -8.224,3.979C-7.444,2.74 -6.35,1.768 -4.941,1.061C-3.533,0.356 -1.97,0.002 -0.256,0L-0.252,4.514C-1.434,4.516 -2.414,4.859 -3.194,5.545C-3.975,6.231 -4.364,7.109 -4.363,8.176L-9.391,8.18ZM-5.437,21.149C-5.246,22.824 -4.635,24.07 -3.605,24.889C-2.576,25.707 -1.375,26.115 -0.004,26.115L0,30.629C-1.753,30.631 -3.372,30.27 -4.858,29.547C-6.345,28.826 -7.555,27.816 -8.489,26.524C-9.424,25.229 -10.006,23.762 -10.236,22.123L-5.437,21.149Z" style="fill:rgb(255,28,63);fill-rule:nonzero;"/>
        </g>
        <g transform="matrix(-0.000899258,-1,-1,0.000899258,346.614,446.7)">
            <rect x="-17.99" y="17.974" width="41.143" height="5.2" style="fill:rgb(255,28,63);"/>
        </g>
        <g transform="matrix(1,0,0,1,351.388,448.067)">
            <path d="M0,4.39L-0.006,-2.983L2.565,-2.985L2.572,4.273L0,4.39ZM0.011,16.619L-0.007,-3.04L5.193,-3.044L5.211,16.615L0.011,16.619ZM5.194,-2.928L-0.006,-2.924C-0.008,-4.602 -0.514,-5.971 -1.524,-7.038C-2.535,-8.102 -3.84,-8.635 -5.44,-8.635L-5.444,-13.092C-3.386,-13.094 -1.567,-12.657 0.014,-11.782C1.596,-10.907 2.854,-9.7 3.789,-8.157C4.724,-6.616 5.192,-4.872 5.194,-2.928M-5.829,3.195L-6.118,-0.805L2.682,-0.813L2.685,3.187L-5.829,3.195ZM-6.959,17.482L-6.563,13.195C-5.191,13.195 -4.02,12.851 -3.05,12.163C-2.079,11.478 -1.328,10.468 -0.795,9.132C-0.264,7.8 0.002,6.218 0,4.39L2.572,4.273C2.574,6.865 2.156,9.15 1.321,11.13C0.484,13.113 -0.647,14.667 -2.075,15.792C-3.502,16.917 -5.13,17.48 -6.959,17.482M-10.807,-3.602L-15.607,-4.567C-15.381,-6.282 -14.801,-7.768 -13.869,-9.028C-12.937,-10.286 -11.738,-11.276 -10.271,-12.001C-8.806,-12.727 -7.178,-13.09 -5.386,-13.092L-5.382,-8.635C-6.792,-8.633 -8.002,-8.221 -9.01,-7.403C-10.019,-6.583 -10.618,-5.315 -10.807,-3.602M-6.959,17.482C-8.673,17.484 -10.236,17.085 -11.646,16.286C-13.056,15.488 -14.182,14.394 -15.021,13.003C-15.86,11.615 -16.28,10.062 -16.282,8.347L-11.368,8.171C-11.366,9.62 -10.879,10.818 -9.907,11.771C-8.935,12.722 -7.82,13.197 -6.563,13.195L-6.959,17.482ZM-16.282,8.347C-16.284,6.556 -15.837,4.986 -14.943,3.632C-14.05,2.279 -12.841,1.201 -11.317,0.4C-9.795,-0.403 -8.061,-0.803 -6.118,-0.805L-5.829,3.195C-7.429,3.197 -8.752,3.663 -9.799,4.597C-10.847,5.533 -11.369,6.724 -11.368,8.171L-16.282,8.347Z" style="fill:rgb(255,28,63);fill-rule:nonzero;"/>
        </g>
        <g transform="matrix(1,0,0,1,376.08,429.82)">
            <path d="M0,30.215L2.061,33.928C1.299,34.498 0.471,34.938 -0.424,35.244C-1.319,35.549 -2.224,35.703 -3.138,35.703L-2.685,31.188C-2.19,31.188 -1.723,31.102 -1.285,30.93C-0.848,30.758 -0.419,30.52 0,30.215M-11.718,26.053L-6.518,26.049C-6.517,27.154 -6.364,28.086 -6.058,28.848C-5.753,29.611 -5.314,30.192 -4.742,30.59C-4.17,30.988 -3.484,31.19 -2.685,31.188L-3.138,35.703C-5.805,35.705 -7.901,34.86 -9.426,33.166C-10.952,31.473 -11.715,29.102 -11.718,26.053M-11.718,26.11L-11.747,-5.49L-6.546,-5.437L-6.518,26.106L-11.718,26.11ZM-15.047,10.283L-15.05,5.998L0.665,5.985L0.668,10.27L-15.047,10.283Z" style="fill:rgb(255,28,63);fill-rule:nonzero;"/>
        </g>
        <g transform="matrix(1,0,0,1,396.19,446.028)">
            <path d="M0,8.388L-0.008,-0.012L5.192,-0.016L5.2,8.384L0,8.388ZM5.2,8.325C5.202,10.46 4.736,12.367 3.805,14.042C2.872,15.72 1.616,17.044 0.038,18.017C-1.543,18.99 -3.343,19.478 -5.362,19.48L-5.366,14.964C-3.651,14.962 -2.329,14.382 -1.396,13.218C-0.463,12.056 0.002,10.427 0,8.331L5.2,8.325ZM5.192,0.04L-0.008,0.044C-0.009,-2.089 -0.478,-3.725 -1.412,-4.868C-2.347,-6.01 -3.671,-6.581 -5.385,-6.579L-5.389,-11.092C-3.37,-11.094 -1.57,-10.61 0.013,-9.641C1.593,-8.671 2.852,-7.348 3.787,-5.673C4.722,-3.997 5.19,-2.092 5.192,0.04M-5.59,19.48L-5.594,14.964L-5.251,14.964L-5.248,19.48L-5.59,19.48ZM-5.614,-6.579L-5.618,-11.092L-5.275,-11.092L-5.271,-6.579L-5.614,-6.579ZM-16.058,8.345L-10.857,8.341C-10.855,10.437 -10.378,12.066 -9.424,13.226C-8.472,14.388 -7.157,14.966 -5.48,14.964L-5.476,19.48C-7.496,19.482 -9.296,18.997 -10.877,18.027C-12.459,17.058 -13.718,15.736 -14.653,14.06C-15.588,12.384 -16.056,10.48 -16.058,8.345M-16.058,8.404L-16.065,0.003L-10.865,-0.003L-10.857,8.398L-16.058,8.404ZM-16.065,0.06C-16.067,-2.073 -15.603,-3.979 -14.67,-5.655C-13.739,-7.333 -12.483,-8.657 -10.902,-9.632C-9.323,-10.604 -7.523,-11.091 -5.503,-11.092L-5.5,-6.579C-7.176,-6.577 -8.49,-6.005 -9.441,-4.86C-10.392,-3.717 -10.867,-2.079 -10.865,0.054L-16.065,0.06Z" style="fill:rgb(255,28,63);fill-rule:nonzero;"/>
        </g>
        <g transform="matrix(1,0,0,1,420.121,458.237)">
            <path d="M0,-16.7C-0.572,-17.194 -1.173,-17.575 -1.801,-17.841C-2.43,-18.106 -3.05,-18.239 -3.659,-18.239L-2.521,-23.098C-1.645,-23.098 -0.825,-22.956 -0.063,-22.671C0.699,-22.388 1.461,-21.882 2.224,-21.159L0,-16.7ZM-10.568,-12.634C-10.57,-14.614 -10.22,-16.405 -9.516,-18.005C-8.813,-19.606 -7.853,-20.854 -6.633,-21.751C-5.415,-22.647 -4.044,-23.096 -2.521,-23.098L-3.659,-18.239C-4.993,-18.237 -6.087,-17.714 -6.943,-16.665C-7.799,-15.616 -8.227,-14.272 -8.225,-12.636L-10.568,-12.634ZM-13.408,6.398L-13.434,-22.46L-8.234,-22.464L-8.208,6.394L-13.408,6.398Z" style="fill:rgb(255,28,63);fill-rule:nonzero;"/>
        </g>
        <g transform="matrix(6.85323,55.1531,55.1531,-6.85324,139.44,408.054)">
            <path d="M0.388,-0.954C1.227,-0.593 1.118,0.591 1.118,0.591L0.388,0.681C0.388,0.681 0.664,0.212 0.124,-0.419C0.224,-0.673 0.388,-0.954 0.388,-0.954Z" style="fill:url(#_Linear1);fill-rule:nonzero;"/>
        </g>
        <g transform="matrix(74.2091,-31.1803,-31.1803,-74.2091,93.2392,395.192)">
            <path d="M-0.013,0.135L-0.235,-0.394C-0.235,-0.394 0.745,-0.121 0.969,-0.467L1.172,0.017C1.132,0.116 1.058,0.18 0.967,0.218C0.612,0.367 -0.013,0.135 -0.013,0.135ZM0.281,0.075C0.281,0.075 0.695,0.213 0.878,0.088L0.85,0.021C0.85,0.021 0.698,0.13 0.253,0.009L0.281,0.075ZM0.24,-0.022C0.24,-0.022 0.647,0.112 0.839,-0.006L0.81,-0.076C0.81,-0.076 0.655,0.028 0.21,-0.093L0.24,-0.022ZM0.199,-0.119C0.199,-0.119 0.596,0.006 0.797,-0.105L0.767,-0.178C0.767,-0.178 0.618,-0.062 0.173,-0.183L0.199,-0.119Z" style="fill:url(#_Linear2);fill-rule:nonzero;"/>
        </g>
    </g>
    <defs>
        <linearGradient id="_Linear1" x1="0" y1="0" x2="1" y2="0" gradientUnits="userSpaceOnUse" gradientTransform="matrix(-0.395103,-0.918637,-0.918637,0.395103,0.846904,0.557663)"><stop offset="0" style="stop-color:rgb(210,45,64);stop-opacity:1"/><stop offset="1" style="stop-color:rgb(148,28,63);stop-opacity:1"/></linearGradient>
        <linearGradient id="_Linear2" x1="0" y1="0" x2="1" y2="0" gradientUnits="userSpaceOnUse" gradientTransform="matrix(1,-5.55112e-17,-5.55112e-17,-1,0,-0.0992392)"><stop offset="0" style="stop-color:rgb(210,45,64);stop-opacity:1"/><stop offset="1" style="stop-color:rgb(255,28,63);stop-opacity:1"/></linearGradient>
    </defs>
</svg>
