<?xml version="1.0" encoding="UTF-8" standalone="no"?>
<!-- Created with Inkscape (http://www.inkscape.org/) -->

<svg
   width="512"
   height="72"
   viewBox="0 0 135.46666 19.050001"
   version="1.1"
   id="svg5"
   xmlns="http://www.w3.org/2000/svg"
   xmlns:svg="http://www.w3.org/2000/svg">
  <defs
     id="defs2">
    <rect
       x="95.528336"
       y="119.70678"
       width="716.23413"
       height="66.14653"
       id="rect3722" />
    <linearGradient
       id="_Linear1"
       x1="0"
       y1="0"
       x2="1"
       y2="0"
       gradientUnits="userSpaceOnUse"
       gradientTransform="matrix(-7.7126929,-2.239171,-2.239171,7.7126929,86.63629,82.880289)">
      <stop
         offset="0"
         style="stop-color:rgb(210,45,64);stop-opacity:1"
         id="stop903" />
      <stop
         offset="1"
         style="stop-color:rgb(148,28,63);stop-opacity:1"
         id="stop905" />
    </linearGradient>
    <linearGradient
       id="_Linear2"
       x1="0"
       y1="0"
       x2="1"
       y2="0"
       gradientUnits="userSpaceOnUse"
       gradientTransform="translate(0,-0.0992741)">
      <stop
         offset="0"
         style="stop-color:rgb(210,45,64);stop-opacity:1"
         id="stop908" />
      <stop
         offset="1"
         style="stop-color:rgb(255,28,63);stop-opacity:1"
         id="stop910" />
    </linearGradient>
    <rect
       x="95.528336"
       y="119.70678"
       width="716.23413"
       height="66.14653"
       id="rect25969" />
    <rect
       x="95.528336"
       y="119.70678"
       width="716.23413"
       height="66.14653"
       id="rect42914" />
  </defs>
  <g
     id="layer1">
    <g
       id="g1497"
       transform="matrix(1.1023518,0,0,1.1023518,-21.831674,-27.358324)"
       style="stroke-width:0.907151">
      <g
         transform="matrix(0.26458333,0,0,0.26458333,42.869294,31.092616)"
         id="g26601"
         style="clip-rule:evenodd;fill:#d22d40;fill-opacity:1;fill-rule:evenodd;stroke-width:0.907151;stroke-linejoin:round;stroke-miterlimit:2">
        <path
           d="m 0,17.771 4.743,0.914 c -0.42,3.543 -1.648,6.305 -3.686,8.285 -2.038,1.982 -4.676,2.971 -7.913,2.971 v -4.513 c 1.942,0 3.514,-0.677 4.713,-2.029 1.2,-1.352 1.914,-3.229 2.143,-5.628 M 0,0 C -0.229,-2.399 -0.943,-4.275 -2.143,-5.628 -3.342,-6.98 -4.914,-7.657 -6.856,-7.657 v -4.513 c 3.237,0 5.875,0.99 7.913,2.971 2.038,1.981 3.266,4.723 3.686,8.228 z m -18.113,19.199 h 5.199 c 0,1.981 0.543,3.514 1.629,4.6 1.086,1.086 2.58,1.629 4.486,1.629 v 4.513 c -2.21,0 -4.172,-0.457 -5.886,-1.371 -1.714,-0.914 -3.048,-2.171 -4,-3.771 -0.952,-1.6 -1.428,-3.466 -1.428,-5.6 m 0,-20.684 h 5.2 v 20.742 h -5.2 z m 0,0 c 0,-2.095 0.476,-3.952 1.428,-5.572 0.952,-1.618 2.286,-2.875 4,-3.771 1.714,-0.894 3.676,-1.342 5.886,-1.342 v 4.513 c -1.906,0 -3.4,0.534 -4.486,1.6 -1.086,1.067 -1.629,2.591 -1.629,4.572 z"
           style="fill:#d22d40;fill-opacity:1;fill-rule:nonzero;stroke-width:0.907151"
           id="path26599" />
      </g>
      <g
         transform="matrix(0.26458333,0,0,0.26458333,-2.791174,-95.837427)"
         id="g26605"
         style="clip-rule:evenodd;fill:#d22d40;fill-opacity:1;fill-rule:evenodd;stroke-width:0.907151;stroke-linejoin:round;stroke-miterlimit:2">
        <path
           d="m 198.517,489.107 h 5.2 v 19.656 h -5.2 z m 0,0 c 0,-1.6 -0.496,-2.905 -1.486,-3.914 -0.991,-1.009 -2.267,-1.515 -3.828,-1.515 l 1.314,-4.628 c 1.752,0 3.323,0.439 4.714,1.314 1.39,0.877 2.485,2.077 3.285,3.6 0.8,1.524 1.2,3.238 1.2,5.143 z m -13.142,0.114 c 0,-1.943 0.399,-3.686 1.199,-5.228 0.8,-1.543 1.886,-2.752 3.257,-3.629 1.372,-0.875 2.933,-1.314 4.686,-1.314 l -1.314,4.628 c -1.639,0 -2.972,0.515 -4,1.543 -1.029,1.029 -1.543,2.363 -1.543,4 z m -2.915,-9.314 h 5.2 v 28.855 h -5.2 z m 0,-12.285 h 5.2 v 41.141 h -5.2 z"
           style="fill:#d22d40;fill-opacity:1;fill-rule:nonzero;stroke-width:0.907151"
           id="path26603" />
      </g>
      <g
         transform="matrix(0.26458333,0,0,0.26458333,56.8385,34.373286)"
         id="g26609"
         style="clip-rule:evenodd;fill:#d22d40;fill-opacity:1;fill-rule:evenodd;stroke-width:0.907151;stroke-linejoin:round;stroke-miterlimit:2">
        <path
           d="M 0,4.4 V -2.971 H 2.572 V 4.286 Z M 0,-3.028 H 5.2 V 16.628 H 0 Z m 5.2,0.114 H 0 c 0,-1.676 -0.505,-3.047 -1.514,-4.114 -1.01,-1.066 -2.314,-1.6 -3.914,-1.6 v -4.457 c 2.057,0 3.876,0.439 5.457,1.315 1.58,0.876 2.837,2.085 3.771,3.628 0.933,1.542 1.4,3.285 1.4,5.228 M -5.828,3.2 l -0.286,-4 h 8.8 v 4 z m -1.143,14.285 0.4,-4.285 c 1.371,0 2.543,-0.343 3.514,-1.029 C -2.085,11.485 -1.333,10.477 -0.8,9.143 -0.267,7.81 0,6.229 0,4.4 L 2.572,4.286 c 0,2.591 -0.42,4.876 -1.258,6.857 -0.838,1.981 -1.971,3.533 -3.399,4.656 -1.429,1.123 -3.058,1.686 -4.886,1.686 m -3.828,-21.085 -4.8,-0.971 c 0.228,-1.714 0.809,-3.2 1.743,-4.457 0.933,-1.257 2.133,-2.247 3.6,-2.971 1.465,-0.723 3.094,-1.086 4.885,-1.086 v 4.457 c -1.41,0 -2.619,0.41 -3.629,1.229 -1.009,0.819 -1.609,2.085 -1.799,3.799 m 3.828,21.085 c -1.714,0 -3.277,-0.4 -4.685,-1.2 -1.41,-0.8 -2.534,-1.894 -3.371,-3.285 -0.839,-1.391 -1.258,-2.943 -1.258,-4.657 l 4.914,-0.172 c 0,1.448 0.486,2.648 1.457,3.6 0.972,0.953 2.086,1.429 3.343,1.429 z m -9.314,-9.142 c 0,-1.79 0.448,-3.362 1.343,-4.714 0.895,-1.352 2.105,-2.429 3.629,-3.229 1.522,-0.8 3.256,-1.2 5.199,-1.2 l 0.286,4 c -1.6,0 -2.924,0.467 -3.971,1.4 -1.049,0.934 -1.572,2.124 -1.572,3.571 z"
           style="fill:#d22d40;fill-opacity:1;fill-rule:nonzero;stroke-width:0.907151"
           id="path26607" />
      </g>
      <g
         transform="matrix(0.26458333,0,0,0.26458333,63.32397,37.079446)"
         id="g26613"
         style="clip-rule:evenodd;fill:#d22d40;fill-opacity:1;fill-rule:evenodd;stroke-width:0.907151;stroke-linejoin:round;stroke-miterlimit:2">
        <path
           d="m 0,-16.684 c -0.572,-0.495 -1.171,-0.876 -1.8,-1.143 -0.629,-0.266 -1.248,-0.4 -1.857,-0.4 l 1.143,-4.857 c 0.875,0 1.694,0.143 2.457,0.429 0.761,0.285 1.523,0.791 2.286,1.514 z m -10.571,4.057 c 0,-1.98 0.352,-3.771 1.057,-5.371 0.704,-1.6 1.666,-2.848 2.886,-3.743 1.218,-0.895 2.589,-1.343 4.114,-1.343 l -1.143,4.857 c -1.334,0 -2.428,0.524 -3.286,1.571 -0.857,1.049 -1.286,2.391 -1.286,4.029 z m -2.857,-9.828 h 5.2 V 6.4 h -5.2 z"
           style="fill:#d22d40;fill-opacity:1;fill-rule:nonzero;stroke-width:0.907151"
           id="path26611" />
      </g>
      <g
         transform="matrix(0.26458333,0,0,0.26458333,-2.791174,-95.837427)"
         id="g26617"
         style="clip-rule:evenodd;fill:#d22d40;fill-opacity:1;fill-rule:evenodd;stroke-width:0.907151;stroke-linejoin:round;stroke-miterlimit:2">
        <rect
           x="257.31299"
           y="467.62201"
           width="5.1999998"
           height="41.140999"
           style="fill:#d22d40;fill-opacity:1;stroke-width:0.907151"
           id="rect26615" />
      </g>
      <g
         transform="matrix(0.26458333,0,0,0.26458333,-2.791174,-92.57194)"
         id="g26621"
         style="clip-rule:evenodd;fill:#d22d40;fill-opacity:1;fill-rule:evenodd;stroke-width:0.907151;stroke-linejoin:round;stroke-miterlimit:2">
        <path
           d="m 284.338,476.879 h 5.2 v 2.971 h -5.2 z m 0.229,10.971 4.857,0.971 c -0.229,1.639 -0.82,3.105 -1.772,4.4 -0.952,1.296 -2.152,2.305 -3.599,3.029 -1.449,0.723 -3.067,1.085 -4.857,1.085 v -4.514 c 1.371,0 2.561,-0.409 3.571,-1.228 1.009,-0.819 1.609,-2.067 1.8,-3.743 m -5.657,4.971 h 0.286 v 4.514 h -0.286 z m 10.628,-15.942 h -5.2 c 0,-1.676 -0.505,-3.047 -1.514,-4.114 -1.01,-1.066 -2.314,-1.6 -3.914,-1.6 v -4.457 c 2.057,0 3.876,0.439 5.457,1.314 1.58,0.877 2.838,2.086 3.771,3.629 0.933,1.542 1.4,3.285 1.4,5.228 m -19.485,2.971 h 19.485 v 3.714 h -19.485 z m -1.657,6.343 h 5.2 c 0,2.095 0.476,3.724 1.428,4.885 0.953,1.163 2.267,1.743 3.943,1.743 v 4.514 c -2.019,0 -3.819,-0.485 -5.4,-1.457 -1.581,-0.971 -2.838,-2.294 -3.771,-3.971 -0.934,-1.676 -1.4,-3.58 -1.4,-5.714 m 0,-8.4 h 5.2 v 8.399 h -5.2 z m 0,0.058 c 0,-2.172 0.466,-4.086 1.4,-5.743 0.933,-1.657 2.19,-2.971 3.771,-3.943 1.581,-0.971 3.381,-1.457 5.4,-1.457 v 4.457 c -1.676,0 -2.99,0.581 -3.943,1.743 -0.952,1.162 -1.428,2.809 -1.428,4.943 z"
           style="fill:#d22d40;fill-opacity:1;fill-rule:nonzero;stroke-width:0.907151"
           id="path26619" />
      </g>
      <g
         transform="matrix(0.26458333,0,0,0.26458333,77.640572,30.896106)"
         id="g26625"
         style="clip-rule:evenodd;fill:#d22d40;fill-opacity:1;fill-rule:evenodd;stroke-width:0.907151;stroke-linejoin:round;stroke-miterlimit:2">
        <path
           d="m 0,30.627 v -4.514 c 1.409,0 2.571,-0.352 3.485,-1.057 0.915,-0.704 1.372,-1.609 1.372,-2.714 h 5.085 c 0,1.6 -0.428,3.028 -1.285,4.285 C 7.799,27.884 6.628,28.866 5.143,29.57 3.657,30.274 1.943,30.627 0,30.627 M 5.143,9.485 C 4.952,7.771 4.352,6.514 3.343,5.714 c -1.01,-0.8 -2.2,-1.2 -3.572,-1.2 V 0 C 1.562,0 3.18,0.363 4.628,1.086 6.076,1.81 7.275,2.81 8.228,4.085 9.18,5.362 9.771,6.838 10,8.514 Z M 3.828,19.971 C 3.143,19.342 2.257,18.771 1.171,18.256 0.085,17.742 -1.057,17.219 -2.257,16.685 -3.457,16.152 -4.6,15.533 -5.686,14.828 -6.771,14.124 -7.657,13.228 -8.342,12.142 -9.028,11.057 -9.371,9.733 -9.371,8.171 h 5.028 c 0,0.953 0.343,1.743 1.029,2.372 0.686,0.628 1.571,1.19 2.657,1.685 1.086,0.496 2.237,1.02 3.457,1.571 1.219,0.553 2.361,1.191 3.428,1.914 1.066,0.725 1.952,1.61 2.657,2.658 0.705,1.048 1.057,2.371 1.057,3.971 H 4.857 c 0,-0.952 -0.343,-1.743 -1.029,-2.371 M -9.371,8.171 c 0,-1.562 0.39,-2.961 1.171,-4.2 C -7.419,2.734 -6.324,1.763 -4.914,1.057 -3.505,0.353 -1.943,0 -0.229,0 v 4.514 c -1.181,0 -2.162,0.343 -2.942,1.029 -0.782,0.686 -1.172,1.562 -1.172,2.628 z m 3.943,12.971 c 0.19,1.676 0.8,2.924 1.828,3.743 1.029,0.819 2.228,1.228 3.6,1.228 v 4.514 c -1.752,0 -3.371,-0.362 -4.857,-1.085 -1.486,-0.724 -2.695,-1.733 -3.628,-3.029 -0.934,-1.295 -1.515,-2.761 -1.743,-4.4 z"
           style="fill:#d22d40;fill-opacity:1;fill-rule:nonzero;stroke-width:0.907151"
           id="path26623" />
      </g>
      <g
         transform="matrix(0.26458333,0,0,0.26458333,-2.791174,-95.610679)"
         id="g26629"
         style="clip-rule:evenodd;fill:#d22d40;fill-opacity:1;fill-rule:evenodd;stroke-width:0.907151;stroke-linejoin:round;stroke-miterlimit:2">
        <path
           d="m 337.134,467.622 h 5.2 v 40.284 h -5.2 z m -9.257,0 h 23.713 v 4.514 h -23.713 z"
           style="fill:#d22d40;fill-opacity:1;fill-rule:nonzero;stroke-width:0.907151"
           id="path26627" />
      </g>
      <g
         transform="matrix(0.26458333,0,0,0.26458333,94.315672,37.079446)"
         id="g26633"
         style="clip-rule:evenodd;fill:#d22d40;fill-opacity:1;fill-rule:evenodd;stroke-width:0.907151;stroke-linejoin:round;stroke-miterlimit:2">
        <path
           d="m 0,-16.684 c -0.572,-0.495 -1.171,-0.876 -1.8,-1.143 -0.629,-0.266 -1.248,-0.4 -1.857,-0.4 l 1.143,-4.857 c 0.875,0 1.694,0.143 2.457,0.429 0.761,0.285 1.523,0.791 2.286,1.514 z m -10.571,4.057 c 0,-1.98 0.352,-3.771 1.057,-5.371 0.704,-1.6 1.666,-2.848 2.886,-3.743 1.218,-0.895 2.589,-1.343 4.114,-1.343 l -1.143,4.857 c -1.334,0 -2.428,0.524 -3.286,1.571 -0.857,1.049 -1.286,2.391 -1.286,4.029 z m -2.857,-9.828 h 5.2 V 6.4 h -5.2 z"
           style="fill:#d22d40;fill-opacity:1;fill-rule:nonzero;stroke-width:0.907151"
           id="path26631" />
      </g>
      <g
         transform="matrix(0.26458333,0,0,0.26458333,99.788312,34.373286)"
         id="g26637"
         style="clip-rule:evenodd;fill:#d22d40;fill-opacity:1;fill-rule:evenodd;stroke-width:0.907151;stroke-linejoin:round;stroke-miterlimit:2">
        <path
           d="M 0,4.4 V -2.971 H 2.572 V 4.286 Z M 0,-3.028 H 5.2 V 16.628 H 0 Z m 5.2,0.114 H 0 c 0,-1.676 -0.505,-3.047 -1.514,-4.114 -1.01,-1.066 -2.314,-1.6 -3.914,-1.6 v -4.457 c 2.057,0 3.876,0.439 5.457,1.315 1.58,0.876 2.837,2.085 3.771,3.628 0.933,1.542 1.4,3.285 1.4,5.228 M -5.828,3.2 l -0.286,-4 h 8.8 v 4 z m -1.143,14.285 0.4,-4.285 c 1.371,0 2.543,-0.343 3.514,-1.029 C -2.085,11.485 -1.333,10.477 -0.8,9.143 -0.267,7.81 0,6.229 0,4.4 L 2.572,4.286 c 0,2.591 -0.42,4.876 -1.258,6.857 -0.838,1.981 -1.971,3.533 -3.399,4.656 -1.429,1.123 -3.058,1.686 -4.886,1.686 m -3.828,-21.085 -4.8,-0.971 c 0.228,-1.714 0.809,-3.2 1.743,-4.457 0.933,-1.257 2.133,-2.247 3.6,-2.971 1.465,-0.723 3.094,-1.086 4.885,-1.086 v 4.457 c -1.41,0 -2.619,0.41 -3.629,1.229 -1.009,0.819 -1.609,2.085 -1.799,3.799 m 3.828,21.085 c -1.714,0 -3.277,-0.4 -4.685,-1.2 -1.41,-0.8 -2.534,-1.894 -3.371,-3.285 -0.839,-1.391 -1.258,-2.943 -1.258,-4.657 l 4.914,-0.172 c 0,1.448 0.486,2.648 1.457,3.6 0.972,0.953 2.086,1.429 3.343,1.429 z m -9.314,-9.142 c 0,-1.79 0.448,-3.362 1.343,-4.714 0.895,-1.352 2.105,-2.429 3.629,-3.229 1.522,-0.8 3.256,-1.2 5.199,-1.2 l 0.286,4 c -1.6,0 -2.924,0.467 -3.971,1.4 -1.049,0.934 -1.572,2.124 -1.572,3.571 z"
           style="fill:#d22d40;fill-opacity:1;fill-rule:nonzero;stroke-width:0.907151"
           id="path26635" />
      </g>
      <g
         transform="matrix(0.26458333,0,0,0.26458333,-2.791174,-92.813769)"
         id="g26641"
         style="clip-rule:evenodd;fill:#d22d40;fill-opacity:1;fill-rule:evenodd;stroke-width:0.907151;stroke-linejoin:round;stroke-miterlimit:2">
        <path
           d="m 414.843,477.679 h 5.2 v 19.656 h -5.2 z m 0,0 c 0,-1.6 -0.495,-2.905 -1.486,-3.914 -0.99,-1.009 -2.266,-1.515 -3.828,-1.515 l 1.314,-4.628 c 1.752,0 3.324,0.439 4.715,1.314 1.389,0.877 2.485,2.077 3.285,3.6 0.8,1.524 1.2,3.238 1.2,5.143 z m -13.142,0.114 c 0,-1.943 0.4,-3.686 1.2,-5.228 0.8,-1.543 1.886,-2.752 3.257,-3.629 1.371,-0.875 2.933,-1.314 4.685,-1.314 l -1.314,4.628 c -1.638,0 -2.971,0.515 -4,1.543 -1.028,1.029 -1.543,2.363 -1.543,4 z m -2.914,-9.314 h 5.2 v 28.855 h -5.2 z"
           style="fill:#d22d40;fill-opacity:1;fill-rule:nonzero;stroke-width:0.907151"
           id="path26639" />
      </g>
      <g
         transform="matrix(0.26458333,0,0,0.26458333,112.32083,30.896106)"
         id="g26645"
         style="clip-rule:evenodd;fill:#d22d40;fill-opacity:1;fill-rule:evenodd;stroke-width:0.907151;stroke-linejoin:round;stroke-miterlimit:2">
        <path
           d="m 0,30.627 v -4.514 c 1.409,0 2.571,-0.352 3.486,-1.057 0.914,-0.704 1.371,-1.609 1.371,-2.714 h 5.085 c 0,1.6 -0.427,3.028 -1.285,4.285 C 7.8,27.884 6.629,28.866 5.143,29.57 3.657,30.274 1.943,30.627 0,30.627 M 5.143,9.485 C 4.952,7.771 4.352,6.514 3.343,5.714 2.333,4.914 1.144,4.514 -0.229,4.514 V 0 C 1.562,0 3.181,0.363 4.629,1.086 6.076,1.81 7.276,2.81 8.229,4.085 9.181,5.362 9.771,6.838 10,8.514 Z M 3.829,19.971 C 3.144,19.342 2.258,18.771 1.172,18.256 0.086,17.742 -1.057,17.219 -2.257,16.685 -3.457,16.152 -4.6,15.533 -5.685,14.828 -6.771,14.124 -7.656,13.228 -8.342,12.142 -9.027,11.057 -9.37,9.733 -9.37,8.171 h 5.028 c 0,0.953 0.343,1.743 1.029,2.372 0.685,0.628 1.571,1.19 2.657,1.685 1.085,0.496 2.237,1.02 3.456,1.571 1.219,0.553 2.362,1.191 3.429,1.914 1.066,0.725 1.952,1.61 2.657,2.658 0.704,1.048 1.056,2.371 1.056,3.971 H 4.857 c 0,-0.952 -0.342,-1.743 -1.028,-2.371 M -9.37,8.171 c 0,-1.562 0.39,-2.961 1.171,-4.2 0.78,-1.237 1.876,-2.208 3.285,-2.914 C -3.505,0.353 -1.942,0 -0.229,0 v 4.514 c -1.18,0 -2.162,0.343 -2.942,1.029 -0.781,0.686 -1.171,1.562 -1.171,2.628 z m 3.942,12.971 c 0.191,1.676 0.8,2.924 1.828,3.743 1.029,0.819 2.229,1.228 3.6,1.228 v 4.514 c -1.752,0 -3.371,-0.362 -4.856,-1.085 -1.486,-0.724 -2.696,-1.733 -3.629,-3.029 -0.934,-1.295 -1.514,-2.761 -1.743,-4.4 z"
           style="fill:#d22d40;fill-opacity:1;fill-rule:nonzero;stroke-width:0.907151"
           id="path26643" />
      </g>
      <g
         transform="matrix(0.26458333,0,0,0.26458333,-2.791174,-95.837427)"
         id="g26649"
         style="clip-rule:evenodd;fill:#d22d40;fill-opacity:1;fill-rule:evenodd;stroke-width:0.907151;stroke-linejoin:round;stroke-miterlimit:2">
        <rect
           x="450.95499"
           y="467.62201"
           width="5.1989999"
           height="41.140999"
           style="fill:#d22d40;fill-opacity:1;stroke-width:0.907151"
           id="rect26647" />
      </g>
      <g
         transform="matrix(0.26458333,0,0,0.26458333,123.91646,34.373286)"
         id="g26653"
         style="clip-rule:evenodd;fill:#d22d40;fill-opacity:1;fill-rule:evenodd;stroke-width:0.907151;stroke-linejoin:round;stroke-miterlimit:2">
        <path
           d="M 0,4.4 V -2.971 H 2.571 V 4.286 Z M 0,-3.028 H 5.199 V 16.628 H 0 Z m 5.199,0.114 H 0 c 0,-1.676 -0.506,-3.047 -1.515,-4.114 -1.009,-1.066 -2.314,-1.6 -3.914,-1.6 v -4.457 c 2.058,0 3.876,0.439 5.457,1.315 1.58,0.876 2.837,2.085 3.772,3.628 0.932,1.542 1.399,3.285 1.399,5.228 M -5.828,3.2 l -0.286,-4 h 8.8 v 4 z M -6.972,17.485 -6.571,13.2 c 1.371,0 2.543,-0.343 3.513,-1.029 C -2.086,11.485 -1.334,10.477 -0.8,9.143 -0.268,7.81 0,6.229 0,4.4 L 2.571,4.286 c 0,2.591 -0.42,4.876 -1.257,6.857 -0.838,1.981 -1.971,3.533 -3.4,4.656 -1.429,1.123 -3.057,1.686 -4.886,1.686 M -10.8,-3.6 -15.6,-4.571 c 0.229,-1.714 0.809,-3.2 1.744,-4.457 0.932,-1.257 2.132,-2.247 3.599,-2.971 1.466,-0.723 3.095,-1.086 4.886,-1.086 v 4.457 c -1.41,0 -2.62,0.41 -3.629,1.229 -1.01,0.819 -1.609,2.085 -1.8,3.799 m 3.828,21.085 c -1.714,0 -3.276,-0.4 -4.685,-1.2 -1.409,-0.8 -2.533,-1.894 -3.371,-3.285 -0.838,-1.391 -1.257,-2.943 -1.257,-4.657 l 4.914,-0.172 c 0,1.448 0.485,2.648 1.457,3.6 0.972,0.953 2.086,1.429 3.343,1.429 z m -9.313,-9.142 c 0,-1.79 0.447,-3.362 1.343,-4.714 0.894,-1.352 2.104,-2.429 3.628,-3.229 1.523,-0.8 3.257,-1.2 5.2,-1.2 l 0.286,4 c -1.601,0 -2.925,0.467 -3.972,1.4 -1.048,0.934 -1.571,2.124 -1.571,3.571 z"
           style="fill:#d22d40;fill-opacity:1;fill-rule:nonzero;stroke-width:0.907151"
           id="path26651" />
      </g>
      <g
         transform="matrix(0.26458333,0,0,0.26458333,130.44743,29.550596)"
         id="g26657"
         style="clip-rule:evenodd;fill:#d22d40;fill-opacity:1;fill-rule:evenodd;stroke-width:0.907151;stroke-linejoin:round;stroke-miterlimit:2">
        <path
           d="m 0,30.227 2.058,3.714 c -0.763,0.572 -1.591,1.009 -2.486,1.314 -0.895,0.305 -1.801,0.457 -2.715,0.457 l 0.457,-4.513 c 0.496,0 0.962,-0.086 1.401,-0.258 C -0.848,30.77 -0.419,30.532 0,30.227 m -11.713,-4.171 h 5.199 c 0,1.105 0.153,2.038 0.457,2.8 0.305,0.762 0.744,1.343 1.315,1.743 0.571,0.399 1.257,0.6 2.056,0.6 l -0.457,4.513 c -2.667,0 -4.761,-0.848 -6.285,-2.542 -1.524,-1.695 -2.285,-4.066 -2.285,-7.114 m 0,0.057 V -5.485 l 5.199,0.057 V 26.113 Z M -15.027,6 H 0.687 v 4.285 h -15.714 z"
           style="fill:#d22d40;fill-opacity:1;fill-rule:nonzero;stroke-width:0.907151"
           id="path26655" />
      </g>
      <g
         transform="matrix(0.26458333,0,0,0.26458333,-2.791174,-92.587021)"
         id="g26661"
         style="clip-rule:evenodd;fill:#d22d40;fill-opacity:1;fill-rule:evenodd;stroke-width:0.907151;stroke-linejoin:round;stroke-miterlimit:2">
        <path
           d="m 523.692,477.85 h 5.199 v 8.399 h -5.199 z m 5.2,8.343 c 0,2.134 -0.467,4.038 -1.4,5.714 -0.934,1.676 -2.191,3 -3.771,3.971 -1.581,0.972 -3.381,1.457 -5.4,1.457 v -4.514 c 1.714,0 3.037,-0.58 3.971,-1.743 0.933,-1.162 1.4,-2.79 1.4,-4.885 z m 0,-8.285 h -5.2 c 0,-2.134 -0.467,-3.772 -1.4,-4.914 -0.934,-1.144 -2.257,-1.715 -3.971,-1.715 v -4.514 c 2.019,0 3.819,0.486 5.4,1.457 1.58,0.972 2.837,2.295 3.771,3.971 0.933,1.677 1.4,3.581 1.4,5.715 m -10.8,14.913 h 0.344 v 4.514 h -0.344 z m 0,-26.056 h 0.344 v 4.514 h -0.344 z m -10.456,19.428 h 5.199 c 0,2.095 0.477,3.723 1.429,4.885 0.952,1.163 2.266,1.743 3.942,1.743 v 4.514 c -2.019,0 -3.819,-0.485 -5.399,-1.457 -1.581,-0.971 -2.838,-2.295 -3.772,-3.971 -0.933,-1.676 -1.399,-3.58 -1.399,-5.714 m 0,-8.343 h 5.199 v 8.399 h -5.199 z m 0,0.058 c 0,-2.134 0.466,-4.038 1.399,-5.715 0.934,-1.676 2.191,-2.999 3.772,-3.971 1.58,-0.971 3.38,-1.457 5.399,-1.457 v 4.514 c -1.676,0 -2.99,0.571 -3.942,1.715 -0.952,1.142 -1.429,2.78 -1.429,4.914 z"
           style="fill:#d22d40;fill-opacity:1;fill-rule:nonzero;stroke-width:0.907151"
           id="path26659" />
      </g>
      <g
         transform="matrix(0.26458333,0,0,0.26458333,142.10365,37.079446)"
         id="g26665"
         style="clip-rule:evenodd;fill:#d22d40;fill-opacity:1;fill-rule:evenodd;stroke-width:0.907151;stroke-linejoin:round;stroke-miterlimit:2">
        <path
           d="m 0,-16.684 c -0.571,-0.495 -1.172,-0.876 -1.8,-1.143 -0.629,-0.266 -1.248,-0.4 -1.857,-0.4 l 1.142,-4.857 c 0.876,0 1.696,0.143 2.457,0.429 0.762,0.285 1.524,0.791 2.287,1.514 z m -10.571,4.057 c 0,-1.98 0.351,-3.771 1.057,-5.371 0.704,-1.6 1.666,-2.848 2.886,-3.743 1.218,-0.895 2.59,-1.343 4.113,-1.343 l -1.142,4.857 c -1.334,0 -2.429,0.524 -3.285,1.571 -0.858,1.049 -1.287,2.391 -1.287,4.029 z m -2.857,-9.828 h 5.199 V 6.4 h -5.199 z"
           style="fill:#d22d40;fill-opacity:1;fill-rule:nonzero;stroke-width:0.907151"
           id="path26663" />
      </g>
      <path
         d="m 20.010505,37.409456 c 3.709725,6.33675 13.029897,4.29541 13.029897,4.29541 l 6.49e-4,-5.91609 c 0,0 -3.46324,2.67251 -9.028416,-1.01365 -1.925193,1.04875 -4.00213,2.63433 -4.00213,2.63433 z"
         style="clip-rule:evenodd;fill:#96202e;fill-opacity:1;fill-rule:nonzero;stroke-width:7.28549;stroke-linejoin:round;stroke-miterlimit:2"
         id="path26667" />
      <path
         d="m 19.804643,30.124416 0.0074,6.68451 c 0,0 9.275578,-7.35469 13.237082,-4.65331 l -0.0084,-6.11628 c -0.875107,-0.88151 -1.952633,-1.22371 -3.099825,-1.22118 -4.478724,0.002 -10.136266,5.30626 -10.136266,5.30626 z m 3.423458,-0.68135 c 0,0 3.8182,-3.34559 6.344112,-2.82964 l 0.0016,0.84474 c 0,0 -2.121344,-0.48406 -6.348618,2.81891 z m 0.0019,1.23579 c 0,0 3.756645,-3.28188 6.347537,-2.88155 l 0.0044,0.88141 c 0,0 -2.130988,-0.41691 -6.358262,2.88606 z m 0.0036,1.20982 c 0,0 3.683734,-3.12506 6.339605,-2.84036 l 0.0072,0.9181 c 0,0 -2.120714,-0.57265 -6.347987,2.73032 z"
         style="clip-rule:evenodd;fill:#d22d40;fill-opacity:1;fill-rule:nonzero;stroke-width:10.5529;stroke-linejoin:round;stroke-miterlimit:2"
         id="path26669" />
    </g>
  </g>
</svg>
