<?xml version="1.0" standalone="no"?>
<!DOCTYPE svg PUBLIC "-//W3C//DTD SVG 20010904//EN"
 "http://www.w3.org/TR/2001/REC-SVG-20010904/DTD/svg10.dtd">
<svg version="1.0" xmlns="http://www.w3.org/2000/svg"
 width="310.000000pt" height="310.000000pt" viewBox="0 0 310.000000 310.000000"
 preserveAspectRatio="xMidYMid meet">
<metadata>
Created by potrace 1.14, written by Peter Selinger 2001-2017
</metadata>
<g transform="translate(0.000000,310.000000) scale(0.100000,-0.100000)"
fill="#000000" stroke="none">
<path d="M1989 2896 c-2 -2 -26 -7 -54 -11 -232 -31 -586 -192 -910 -414 -163
-111 -389 -287 -478 -371 l-37 -35 2 -522 3 -523 95 71 c260 194 608 407 860
527 163 77 196 91 335 137 178 60 269 77 415 81 143 4 221 -10 312 -56 l58
-30 0 479 0 479 -45 40 c-53 47 -137 93 -225 122 -49 17 -96 23 -196 26 -72 2
-132 2 -135 0z m48 -280 c11 -11 10 -118 -2 -121 -5 -2 -45 -6 -87 -10 -136
-10 -311 -70 -496 -171 -99 -54 -323 -203 -364 -242 -31 -29 -35 -28 -38 8 -7
88 -4 96 73 155 39 31 79 61 87 68 9 7 56 38 104 71 186 122 387 214 526 240
70 13 185 14 197 2z m3 -185 c3 0 6 -31 6 -68 l-1 -68 -65 -1 c-200 -5 -497
-137 -802 -358 -54 -39 -107 -76 -116 -83 -16 -11 -17 -7 -14 59 2 43 9 76 17
83 75 60 217 164 281 205 149 95 361 193 467 216 76 17 109 20 162 19 33 -1
62 -3 65 -4z m-10 -196 c13 -4 16 -18 14 -68 -1 -34 -2 -64 -3 -67 0 -3 -31
-5 -68 -4 -148 2 -375 -77 -593 -206 -41 -25 -83 -49 -92 -55 -30 -17 -130
-88 -181 -127 -27 -21 -52 -38 -55 -38 -4 0 -6 28 -4 62 l4 63 94 70 c251 186
513 320 701 358 70 14 158 20 183 12z"/>
<path d="M1040 1261 c-141 -87 -263 -167 -403 -269 l-96 -69 56 -84 c68 -101
230 -265 333 -335 229 -157 490 -246 840 -289 96 -12 521 -13 590 -1 14 2 48
7 75 10 92 13 120 17 138 22 16 5 17 36 17 465 0 252 -2 459 -5 459 -3 0 -29
-13 -58 -29 -130 -73 -312 -112 -497 -106 -138 4 -157 7 -280 37 -146 35 -366
130 -494 212 -93 59 -78 61 -216 -23z"/>
</g>
</svg>
